<?xml version="1.0" encoding="UTF-8"?>
<svg width="55px" height="61px" viewBox="0 0 55 61" version="1.1" xmlns="http://www.w3.org/2000/svg" xmlns:xlink="http://www.w3.org/1999/xlink">
    <!-- Generator: Sketch 63.1 (92452) - https://sketch.com -->
    <title>special_5</title>
    <desc>Created with Sketch.</desc>
    <g id="Foundation:-niceverynice.com" stroke="none" stroke-width="1" fill="none" fill-rule="evenodd">
        <g id="Artboard" transform="translate(-2446.000000, -2321.000000)" fill="#E32620">
            <g id="special_5" transform="translate(2446.000000, 2321.000000)">
                <path d="M25.9776313,60.4473683 C22.5795935,59.3190052 19.8585736,55.5762926 17.7479798,49.138457 C17.4292018,48.1963047 17.1110404,47.4261814 17.0444485,47.4397464 C16.2743252,47.6123922 13.5002785,48.0372239 12.5050992,48.1432777 C8.58974087,48.5415961 4.84641169,47.9841971 2.8690016,46.7097017 C-1.81647993,43.6569554 -0.62152491,37.6439515 6.02780169,30.8219792 L7.44781274,29.3483247 L6.37247654,28.0343675 C2.69635588,23.4950182 0.838564612,19.0481577 1.35588518,16.0089764 C1.67466317,14.1111067 2.77589623,12.5844252 4.44870994,11.7088648 C5.05913588,11.3771384 5.1787547,11.2575196 5.31132195,10.7932259 C5.51048112,10.0502327 6.32006624,9.14754224 7.11670291,8.77573735 C7.97931492,8.377419 9.26675873,8.35090555 10.0633954,8.70914543 C10.7268482,9.0143584 11.5370499,9.79743005 11.775671,10.3683941 C11.9483167,10.7796609 12.0013436,10.7932259 13.1297068,10.9523066 C13.7666461,11.045412 15.0275765,11.3105465 15.9302669,11.5232707 C16.8329574,11.7489433 17.5759506,11.908024 17.6024641,11.8950756 C17.6160291,11.8685622 17.8947286,11.1255689 18.1999416,10.2493919 C19.965244,5.3252893 22.2879456,2.0468704 24.9294251,0.732296552 C26.0843017,0.161332491 26.1108151,0.161332491 27.4913643,0.161332491 C28.7393462,0.161332491 28.9915323,0.20079437 29.6549851,0.519572361 C32.8008368,1.97966188 35.2561056,5.51026686 37.1274619,11.2174411 C37.4591883,12.213237 37.7514528,13.1023624 37.7779663,13.1819027 C37.8174281,13.3015215 38.1627196,13.2743916 39.0123832,13.1023624 C39.662271,12.9697951 40.9897932,12.757071 41.972024,12.6510171 C47.0687724,12.0535397 50.9711823,12.7971495 53.0947246,14.7616111 C54.7934351,16.3277544 55.3243208,18.358808 54.7138948,20.9336956 C54.050442,23.6812289 52.0724153,26.7604886 48.8605883,30.0259591 L47.5595795,31.3534814 L48.6213507,32.6797705 C52.298088,37.2456332 54.1299823,41.5728749 53.6521237,44.6120562 C52.8820004,49.5891857 47.6126064,51.2484344 39.0647934,49.1914839 C38.175668,48.9658112 37.4191098,48.8067306 37.4055448,48.833244 C37.3925964,48.8597575 37.1003318,49.6163157 36.7686054,50.5319546 C36.436879,51.4475935 36.0780225,52.3767974 35.9990987,52.5895217 C35.8529665,52.9477615 35.8665315,53.0408669 36.1846929,53.5051606 C36.8746591,54.5274699 36.9677646,55.9209674 36.4239306,56.9963037 C36.0656906,57.6733215 35.1099732,58.5494985 34.4730339,58.7616061 C33.8626079,58.9607653 33.0659713,59.0008438 32.4025185,58.8547115 C31.9912517,58.7751711 31.8586845,58.814633 31.4073392,59.1734895 C31.1286396,59.4121105 30.4386734,59.8104288 29.8942227,60.0626149 C29.0180458,60.4874468 28.7658597,60.5534221 27.7040884,60.5805521 C26.9734272,60.6064489 26.3093577,60.5534221 25.9776313,60.4473683 Z M29.4687744,58.562447 C30.557059,57.9649695 30.6501644,57.8724806 30.4244918,57.5271892 C29.5218013,56.0936132 29.5483147,54.5009564 30.5040321,53.2529745 C31.2340768,52.2972571 32.7471933,51.726293 33.8755563,51.9784791 C34.3133366,52.0715844 34.4859824,52.0715844 34.5655227,51.9519656 C34.8047603,51.5672124 35.8794799,48.4879526 35.812888,48.3418203 C35.7863746,48.2487149 35.5872154,48.1297128 35.3751077,48.0896343 C34.5390093,47.87691 30.8887854,46.3508452 28.8978103,45.3821794 L26.7742679,44.3469216 L25.6459049,44.7847019 C24.1463535,45.3821794 20.9073965,46.4568989 19.7130579,46.762112 C19.1821724,46.8946792 18.7443922,47.0408114 18.7443922,47.0938384 C18.7443922,47.3595894 19.8727553,50.5578515 20.3900759,51.7922684 C21.7441116,54.9510684 23.7616001,57.6326264 25.4603107,58.5347004 C26.7341895,59.2129514 28.2738193,59.2129514 29.4687744,58.562447 Z M48.2236489,48.2092531 C52.4312718,47.1209684 53.2809353,43.7895227 50.6659693,38.5861039 C49.9359246,37.1395795 48.7015077,35.2546581 47.4541422,33.7150283 C46.9232567,33.0380104 46.445398,32.4806114 46.4188845,32.4806114 C46.3794227,32.4806114 45.6222479,33.0780889 44.7331224,33.821082 C43.8304319,34.5511269 42.3839074,35.6394114 41.5212955,36.236889 C40.6451184,36.8343665 39.8355333,37.418279 39.7159145,37.5378978 C39.5568337,37.68403 39.4637284,38.0823483 39.3971365,38.7723147 C39.2510042,40.3785365 38.6936052,43.6569554 38.24226,45.5283116 C38.0165873,46.470464 37.8439416,47.2535357 37.870455,47.2671007 C38.0030223,47.3867195 41.5071138,48.1432777 42.4363177,48.26228 C43.0202302,48.3418203 43.6842997,48.4349257 43.8964073,48.4614392 C44.7059924,48.581058 47.4134472,48.4219772 48.2236489,48.2092531 Z M14.6422066,46.2848699 C15.6373858,46.1257892 16.5271279,45.9395785 16.6196166,45.8865515 C16.7521839,45.8070112 16.7256705,45.4352063 16.4469709,44.0682222 C16.1016795,42.3559465 15.6503342,39.4228191 15.4783052,37.7635703 L15.3987647,36.874445 L13.9787538,35.70662 C13.2086304,35.0696805 11.6424871,33.6225394 10.5011756,32.5077413 L8.41709514,30.4766878 L7.08957288,31.9102639 C4.07628846,35.1492209 2.48363169,37.6445682 1.85964073,40.0597585 C0.983463699,43.5373366 2.66922584,45.7009574 6.85033523,46.4969774 C8.31104135,46.775677 12.3860969,46.6696232 14.6422066,46.2848699 Z M36.7155785,45.2496121 C37.0343565,43.9091414 37.5917556,40.8298817 37.7773496,39.3432787 L37.8568901,38.6927743 L37.4191098,38.9585254 C35.812888,39.9537046 34.2337963,40.8169333 31.6453437,42.1043771 L28.6986511,43.5909801 L29.9996599,44.201406 C32.4284153,45.3427175 35.7203992,46.6702397 36.1581794,46.6838048 C36.3308251,46.6831882 36.450444,46.3644102 36.7155785,45.2496121 Z M19.8585736,45.0899148 C21.1460174,44.71811 23.8405239,43.8289845 24.6371605,43.5102065 C25.0089654,43.3640743 24.9954005,43.3511259 23.4428221,42.4083569 C21.6510062,41.3465856 19.5138988,39.9265747 18.1734282,38.9443438 C17.6820044,38.5861039 17.2312757,38.3203529 17.1911972,38.3733797 C17.0851435,38.4794335 17.4698968,41.2670453 17.8947286,43.3640743 C18.2529685,45.1959687 18.3325088,45.4876199 18.4391792,45.4876199 C18.4786411,45.4882332 19.1155805,45.3155875 19.8585736,45.0899148 Z M29.3491555,41.506283 C31.724884,40.4044333 33.9550968,39.2230434 36.3709036,37.7629538 C38.0301524,36.7671579 38.1232577,36.6876176 38.1232577,36.2899158 C38.1232577,36.0506783 38.1898496,34.6442322 38.2558249,33.1440642 C38.3353653,31.6438962 38.3489303,29.8126183 38.3088519,29.0690086 C38.2293115,27.8345916 38.189233,27.7149729 37.9370469,27.6489976 C37.4326748,27.5164303 36.5571144,26.6532017 36.1853095,25.8966434 C35.8665315,25.2331906 35.8400181,25.0741099 35.90661,24.1048276 L35.9732019,23.0566214 L34.7511169,22.1940094 C33.2645139,21.1587517 31.0614312,19.7782024 29.4021825,18.822485 C28.4729786,18.2915995 28.1011737,18.1454672 27.875501,18.2250076 C27.3045369,18.3976533 23.4422056,20.2424961 22.0487079,20.9990544 C19.6329011,22.3130116 17.0179349,23.9056684 16.9519597,24.1183925 C16.779314,24.702305 16.6467467,30.6752304 16.7528004,33.1440642 C16.8193924,34.6436156 16.8853677,35.9045459 16.8853677,35.9711378 C16.8853677,36.0241647 17.5623856,36.5686154 18.3849191,37.1790413 C21.676903,39.6343101 26.5609272,42.621081 27.0652993,42.5014622 C27.2120482,42.4620004 28.2473059,42.0242201 29.3491555,41.506283 Z M41.0163067,34.7108241 C41.9849725,34.0072927 42.9943333,33.2112727 45.0648488,31.538459 C45.3299833,31.3263514 45.3299833,31.3127864 44.8391762,30.7153088 C44.5740417,30.3835824 43.6978647,29.5074054 42.8882796,28.7637956 L41.4411385,27.4103765 L40.6445018,27.6496141 L39.8478651,27.9018002 L39.8478651,30.7023604 C39.8478651,32.2419903 39.8084033,33.9542659 39.7683248,34.5116649 C39.7152978,35.082629 39.7152978,35.5339742 39.7683248,35.5339742 C39.8349167,35.5333577 40.3923157,35.1621693 41.0163067,34.7108241 Z M15.2261191,29.8927753 C15.2261191,27.3043227 15.1996056,25.1807803 15.1730922,25.1807803 C14.9338545,25.1807803 9.8371062,29.1762956 9.7310524,29.4549951 C9.65151204,29.6671027 14.8413657,34.6047703 15.1595271,34.6047703 C15.1996056,34.6041537 15.2261191,32.4806114 15.2261191,29.8927753 Z M49.6701734,26.8394124 C52.8024601,23.0165429 54.036877,19.4729894 53.0281327,17.2033148 C52.4442202,15.8893576 50.8515635,14.8275865 48.7545345,14.3361627 C47.1618778,13.9643578 42.901228,14.0044363 40.4323942,14.4157031 C39.3971365,14.5754004 38.4814976,14.7745595 38.3883922,14.8269698 C38.2558249,14.9065102 38.2823384,15.2912635 38.5610379,16.6983261 C38.7601971,17.6805569 38.9723047,18.9014088 39.051845,19.405781 C39.3040311,20.9854893 39.2775177,20.9324625 39.7553763,20.9324625 C40.4188292,20.9324625 41.467652,21.5034265 42.011486,22.1403658 C42.8611495,23.1355452 43.126284,24.8213073 42.58245,25.8300515 C42.4233693,26.1223161 42.5029097,26.2283699 44.4809363,28.1792666 L46.5514518,30.2232685 L47.7328418,29.0024166 C48.3691646,28.3260154 49.2453417,27.3573495 49.6701734,26.8394124 Z M10.275503,26.8924393 C11.1781935,26.1623946 12.624718,25.0741099 13.48733,24.4766325 C14.363507,23.8791549 15.1730922,23.2952424 15.292711,23.1756236 C15.4517916,23.0294913 15.5448971,22.6317896 15.611489,21.9146933 C15.7440562,20.4280903 16.4081256,16.6052208 16.8058274,14.9731021 C16.9914215,14.2165439 17.1246053,13.5524745 17.0845268,13.4994476 C16.9914215,13.3533153 13.8461865,12.5967571 12.9034175,12.4907033 L12.1733727,12.4111629 L11.9347517,13.1011293 C11.470458,14.4286515 9.99680349,15.4904227 8.65633278,15.4904227 C8.08536873,15.4904227 7.02359755,15.1321828 6.53279043,14.7603779 C6.12152365,14.455165 5.43094077,13.5925529 5.31193855,13.207183 C5.23239819,12.9950754 4.55538034,13.3927772 3.98441627,13.9902547 C2.01995461,16.0213083 2.65689401,19.8040993 5.73677034,24.5160943 C6.50627698,25.6974843 8.45779021,28.2322973 8.59035745,28.2322973 C8.62981933,28.2335266 9.38637754,27.6360491 10.275503,26.8924393 Z M19.2080692,20.7869468 C19.8715221,20.4021934 21.7299299,19.4199626 23.3626653,18.6103775 L26.3229227,17.1237745 L24.358461,16.221084 C22.300894,15.2789317 19.155659,14.0309497 18.8233159,14.0309497 C18.5310514,14.0309497 17.6419259,18.1060053 17.2306592,21.3708593 L17.1511189,22.0213637 L17.588899,21.7556126 C17.8145717,21.6100969 18.5581814,21.1717001 19.2080692,20.7869468 Z M37.4456232,21.4639646 L37.7644012,21.1982135 L37.5251637,19.6585836 C37.2729776,18.026465 36.7420919,15.3849854 36.6224731,15.278315 C36.5429327,15.1987747 34.3527984,15.8227657 32.282283,16.5392454 C29.667317,17.4283709 29.7468573,17.2026983 31.6317786,18.3446264 C32.5344691,18.875512 34.060534,19.8577428 35.0033029,20.5211956 C35.9590202,21.1717001 36.8216323,21.7025857 36.9276861,21.7155388 C37.0343565,21.7161507 37.2729776,21.5965318 37.4456232,21.4639646 Z M32.282283,14.8941784 C33.4106461,14.509425 34.7640653,14.0845932 35.2955674,13.9514094 C36.4103655,13.6727099 36.3838521,13.9119476 35.5742669,11.4431138 C34.406442,7.97910067 32.9463525,5.29754267 31.2871037,3.61178053 C30.7031912,3.02786804 29.8936062,2.36379861 29.4952879,2.15169101 C28.8318349,1.79345114 28.6456242,1.75337267 27.5043127,1.75337267 C26.3895147,1.75337267 26.163842,1.79345114 25.5534161,2.12517756 C23.9471943,2.96127612 22.0493246,5.29754267 20.8149077,7.93902219 C19.9917575,9.70432469 19.0761186,12.2927773 19.2222509,12.4253446 C19.2888428,12.4783715 19.8197283,12.6910956 20.4036408,12.9032032 C21.8902438,13.4205238 24.8369363,14.6814541 26.6688307,15.5977097 L28.2084606,16.3807813 L29.2172049,15.982463 C29.7739874,15.7697388 31.1545365,15.2789317 32.282283,14.8941784 Z" id="Shape" transform="translate(27.499849, 30.374188) scale(-1, 1) rotate(-180.000000) translate(-27.499849, -30.374188) "></path>
            </g>
        </g>
    </g>
</svg>