<?xml version="1.0" encoding="UTF-8"?>
<svg width="52px" height="65px" viewBox="0 0 52 65" version="1.1" xmlns="http://www.w3.org/2000/svg" xmlns:xlink="http://www.w3.org/1999/xlink">
    <!-- Generator: Sketch 63.1 (92452) - https://sketch.com -->
    <title>special_2</title>
    <desc>Created with Sketch.</desc>
    <g id="Foundation:-niceverynice.com" stroke="none" stroke-width="1" fill="none" fill-rule="evenodd">
        <g id="Artboard" transform="translate(-635.000000, -2332.000000)" fill="#E32620">
            <g id="special_2" transform="translate(635.000000, 2332.000000)">
                <path d="M21.7355117,13.9982606 C22.8757229,13.5750895 24.1121093,13.6231771 25.2159876,14.1339746 C27.4953412,15.1865594 28.4955639,17.9051134 27.4451164,20.193016 C26.6789201,21.8643283 25.0279115,22.8495904 23.3053057,22.8495904 C22.6694804,22.8495904 22.0240375,22.7160137 21.4085158,22.4317624 C20.3046376,21.9209649 19.464707,21.0094371 19.043673,19.8649515 C18.6226391,18.7204659 18.6707267,17.479805 19.179387,16.3727209 C19.6869787,15.2634996 20.5953006,14.4203631 21.7355117,13.9982606 Z M20.7994058,19.2141656 C21.0473243,19.888461 21.5420926,20.4249053 22.1918099,20.7251858 C23.5329205,21.3460505 25.1283612,20.7540384 25.7460201,19.4075847 C26.363679,18.0600625 25.7748727,16.4603473 24.4326935,15.8394825 C24.0757764,15.674916 23.6953498,15.5915641 23.3138546,15.5915641 C23.0007507,15.5915641 22.6865782,15.6482006 22.3841604,15.7593365 C21.7130708,16.0083236 21.1787638,16.5052291 20.8795519,17.1570836 C20.5792714,17.8100068 20.5514874,18.5409388 20.7994058,19.2141656 Z M51.2997869,13.6028734 L50.2076634,16.9583214 C49.6957973,18.5334585 48.4850576,19.7869427 46.9601454,20.3714746 C46.9451848,20.9186049 46.8522154,21.4614608 46.6801685,21.992562 C46.6801685,21.992562 46.6801685,21.992562 46.6790999,21.992562 L45.8712277,24.4738837 C45.100757,26.8451382 42.9122355,28.4384417 40.4266394,28.4384417 C39.8207352,28.4384417 39.2212428,28.3422665 38.6452598,28.1520532 C36.083792,27.3121225 34.5118608,24.8179774 34.7159661,22.2319315 C33.8621435,23.91393 32.7251382,25.8502586 31.3583809,27.9543596 C33.0510655,26.6912578 35.4372806,26.6228665 37.2175915,27.944742 C38.4635954,28.872299 39.2084194,30.3555352 39.2084194,31.9135745 C39.2084194,32.9736396 38.8739432,33.9877543 38.2423923,34.8458513 L32.5103468,42.6168124 L38.1836186,46.0598867 C39.5215233,46.8709648 40.1487997,48.489915 39.7095994,49.9945235 L35.9320488,63.4804323 C35.8647262,63.7219391 35.7033654,63.9260444 35.4853682,64.0478663 C35.3453797,64.1258752 35.1893621,64.1654139 35.0322758,64.1654139 C34.9435809,64.1654139 34.8548859,64.1525905 34.7693968,64.1280124 L29.9456732,62.7099616 C29.4541107,62.5656987 29.1698594,62.0516954 29.3077106,61.5558585 L31.8820017,52.2973867 L23.2593553,46.9521794 C22.4749926,46.4659601 21.8893921,45.7809785 21.5282006,44.9998216 L20.4745472,46.8966115 L14.0446967,58.4686326 L16.8466026,60.1858953 L24.1623341,50.5897415 C24.4765067,50.1772565 25.0642444,50.0992477 25.4745921,50.4144888 C25.8849399,50.7297299 25.9629487,51.3185363 25.6487762,51.7310213 L17.8211786,61.9982647 C17.6384456,62.2387028 17.360606,62.3669365 17.0784919,62.3669365 C16.9107195,62.3669365 16.7429471,62.3231233 16.5912039,62.2301539 L12.3017872,59.6024321 C11.873273,59.339553 11.7268729,58.7838737 11.9726541,58.3436048 L21.6746007,40.8803146 C21.6778066,40.8760402 21.6799438,40.8706971 21.682081,40.865354 L21.972744,40.3438704 C21.9738126,40.3417332 21.9759499,40.3385273 21.9770185,40.3363901 L21.9780871,40.3353215 C21.9973222,40.29792 22.019763,40.2615871 22.0443412,40.2273915 C22.047547,40.223117 22.0496842,40.2188426 22.0528901,40.2145681 L23.5553614,38.1777898 C23.55643,38.1767212 23.5574986,38.174584 23.5585672,38.1735153 L26.5955682,34.0572142 L18.401436,33.1382061 C18.3106038,33.1296572 18.2208402,33.1157652 18.1332139,33.0986674 C18.1268022,33.0975988 18.1214591,33.0965302 18.1150475,33.0954616 C18.0338328,33.0783637 17.9536867,33.0580601 17.8756779,33.0356192 C17.8617859,33.0313447 17.8468253,33.0270703 17.8329334,33.0227958 C17.7624048,33.0014235 17.6940135,32.9757768 17.6266909,32.9490614 C17.5999755,32.9383753 17.5743288,32.9276892 17.5476134,32.917003 C17.4931141,32.8924249 17.4386148,32.8667782 17.3851841,32.8389942 C17.3488512,32.8208278 17.3114497,32.8015927 17.2761855,32.781289 C17.2334409,32.7567109 17.191765,32.7310642 17.1511576,32.7054175 C17.1105503,32.6797707 17.069943,32.6530554 17.0314729,32.6252714 C16.9940714,32.5985561 16.9588071,32.5718407 16.9235428,32.5451254 C16.8861413,32.5152042 16.8498085,32.485283 16.8145442,32.4553618 C16.7771427,32.4222347 16.7408098,32.3891077 16.7055456,32.3559807 C16.6756244,32.3271281 16.6457032,32.2972069 16.6168506,32.2672857 C16.5773119,32.2266784 16.5399104,32.1850024 16.5035775,32.1422579 C16.4907542,32.1272973 16.4768622,32.1134053 16.4640388,32.0984447 C16.0408677,31.5812355 15.8132529,30.9475474 15.8089784,30.2882126 C15.8089784,30.2839381 15.8089784,30.2796637 15.8089784,30.2764578 C15.8079098,30.2401249 15.8089784,30.2037921 15.8111157,30.1663906 C15.8111157,30.1535672 15.8111157,30.1407438 15.8111157,30.1279205 C15.8132529,30.0979993 15.8153901,30.0680781 15.8175273,30.0370883 C15.8196646,30.0189218 15.8207332,30.0007554 15.8218018,29.982589 C15.9756822,28.3956972 17.3851841,27.2298393 18.9667328,27.3847883 C18.9710073,27.3858569 18.9752817,27.3858569 18.9806248,27.3869255 L28.758443,28.4833235 C30.9084944,25.3106085 32.5787381,22.4691639 33.5981958,20.2453781 C34.3366081,18.6360454 34.6539865,16.9198513 34.6903194,15.2057944 L18.2475556,7.60474298 C16.9716305,8.74709136 15.8784383,10.1031625 15.1400261,11.7114266 L14.9914887,12.0405597 C14.7788345,12.5139557 14.2252925,12.7244727 13.7540337,12.5107499 C13.2827749,12.2980957 13.0722579,11.7424164 13.2849121,11.2690204 L13.4387926,10.9292012 C14.2979582,9.05698942 15.635863,7.35361869 17.4044191,5.85969631 C17.4322031,5.82977511 17.4610557,5.80092253 17.4931141,5.7752758 C22.8767915,1.29244003 30.4810488,0.145817197 31.092296,0.0592594621 C31.106188,0.058190848 31.1168741,0.05605362 31.1222172,0.05605362 C31.1371778,0.053916392 31.1510698,0.053916392 31.1660304,0.052847778 C31.5101241,0.0229265857 31.8446003,0.183218687 32.0337449,0.47708754 C32.2143407,0.75706441 36.4546011,7.42735306 36.5635997,14.5913414 C36.5646683,14.6319487 36.5625311,14.672556 36.557188,14.7131634 C36.5614625,15.2250295 36.5432961,15.7262095 36.5048259,16.2188405 L36.8970073,15.0166498 C37.7134284,12.5064754 40.4116788,11.1311692 42.9133042,11.9518648 L46.4578968,13.1155854 C46.5027786,13.130546 46.5508663,13.1326833 46.5978853,13.1230657 L50.2258298,12.3910651 C50.5517571,12.3248111 50.8883705,12.4380841 51.1095736,12.6881398 C51.3307767,12.9371269 51.4023739,13.2854951 51.2997869,13.6028734 Z M23.5970373,41.277839 L23.3138546,41.7886365 C22.62353,43.0378463 23.0306719,44.6033658 24.2424802,45.3546015 L33.4646191,51.0706178 C33.8193989,51.2907523 33.9861027,51.7192665 33.8738983,52.122134 L31.3583809,61.1690202 L34.386833,62.0581071 L37.9100534,49.4762457 C38.1141586,48.7784408 37.8267015,48.0389599 37.2154543,47.6681508 C37.2154543,47.6681508 37.2154543,47.6681508 37.2154543,47.6681508 L27.7443283,41.9200761 L24.5523783,39.9837475 L23.5970373,41.277839 Z M25.6712171,38.4673842 L28.8065306,40.3695171 L30.9020827,41.6411678 L36.7377838,33.7291497 C37.1299651,33.1969799 37.3372763,32.5697035 37.3372763,31.9135745 C37.3372763,30.934724 36.8873898,30.0381569 36.1040957,29.4546936 C35.2908804,28.8509267 34.2746285,28.7162814 33.3759241,29.0005327 L33.9732794,29.0667867 C34.7362698,29.143727 35.4244572,29.5123988 35.9117452,30.1076168 C36.4001018,30.7039034 36.6277166,31.4551391 36.5539822,32.2234725 C36.4791792,32.991806 36.1105074,33.6853365 35.516358,34.1758303 C34.9970116,34.6054132 34.3579804,34.8351652 33.6922339,34.8351652 C33.5981958,34.8351652 33.5041578,34.8298221 33.4090512,34.8212732 C33.4037081,34.8202046 33.3994336,34.8202046 33.3951592,34.819136 L28.7456196,34.2987209 L25.6712171,38.4673842 Z M19.1067213,29.2911957 L18.7797254,29.2548628 C18.747667,29.251657 18.7145399,29.2495197 18.6824815,29.2505884 C18.6664523,29.2505884 18.6493545,29.251657 18.6333253,29.2527256 C18.617296,29.2537942 18.6012668,29.2537942 18.5863062,29.2548628 C18.5670712,29.257 18.5489047,29.2602059 18.5296697,29.2634117 C18.5168463,29.265549 18.504023,29.2676862 18.4922682,29.2698234 C18.4719645,29.2730293 18.4527295,29.2783723 18.4334944,29.2837154 C18.4217397,29.2869212 18.4110535,29.2890585 18.4003674,29.2922643 C18.3800637,29.298676 18.3608287,29.3050877 18.3415936,29.312568 C18.3319761,29.3157738 18.32129,29.3189797 18.3116724,29.3232541 C18.2924374,29.3307344 18.2732023,29.3403519 18.2539673,29.3489008 C18.2454184,29.3542439 18.2368695,29.3574498 18.2272519,29.3627928 C18.2090855,29.3724104 18.1898504,29.3820279 18.171684,29.3937826 C18.1631351,29.3991257 18.1556548,29.4034002 18.1471059,29.4087432 C18.1289394,29.420498 18.1118416,29.4322527 18.0947438,29.4450761 C18.0872635,29.4504192 18.0787146,29.4568309 18.0712343,29.4621739 C18.0541365,29.4749973 18.0381072,29.4888893 18.022078,29.5027813 C18.0145977,29.5091929 18.0081861,29.5166732 18.0007058,29.5230849 C17.9846765,29.5369769 17.9707846,29.5519375 17.955824,29.5668981 C17.9483437,29.5743784 17.941932,29.5829273 17.9344517,29.5904076 C17.9216283,29.6053682 17.9077363,29.6213974 17.8959816,29.636358 C17.8885013,29.6459755 17.8820896,29.6555931 17.8746093,29.6652106 C17.8628546,29.6801712 17.8521684,29.6962004 17.8414823,29.7132982 C17.8350706,29.7229158 17.8286589,29.7346705 17.8222472,29.7453566 C17.8126297,29.7613859 17.8030122,29.7774151 17.7944633,29.7934443 C17.7880516,29.8062676 17.7816399,29.819091 17.7762968,29.8319144 C17.7688165,29.8479436 17.7613362,29.8629042 17.7549245,29.880002 C17.7485129,29.893894 17.7431698,29.9088546 17.7388953,29.9238152 C17.7324836,29.9398444 17.7271406,29.954805 17.7228661,29.9708342 C17.717523,29.987932 17.7132486,30.0060985 17.7089741,30.0242649 C17.7057683,30.0381569 17.7014938,30.0509803 17.698288,30.0659408 C17.6940135,30.0915876 17.6897391,30.1183029 17.6865332,30.1450183 C17.6865332,30.15143 17.6854646,30.1578417 17.684396,30.1642533 C17.6833274,30.1738709 17.6833274,30.1834884 17.6833274,30.1941745 C17.6811902,30.217684 17.6790529,30.2422622 17.6790529,30.2668403 C17.6801216,30.2753892 17.6811902,30.2850067 17.6811902,30.2935556 C17.6811902,30.3181338 17.6822588,30.3437805 17.6854646,30.3683586 C17.6854646,30.3715645 17.6865332,30.3758389 17.6865332,30.3801134 C17.7356895,30.8054217 18.0530678,31.1612702 18.4773076,31.2521024 C18.4815821,31.253171 18.4847879,31.2542396 18.4890624,31.2542396 C18.5221894,31.2617199 18.556385,31.267063 18.5905807,31.2692002 C18.5948551,31.2702688 18.5991296,31.2702688 18.6034041,31.2713375 L19.3920412,31.3589638 L19.6645378,29.3531753 L19.1067213,29.2911957 Z M30.8561323,30.6077282 L21.5249948,29.561555 L21.2524982,31.5684121 L33.59499,32.9522673 C33.8610749,32.9757768 34.1218167,32.8956307 34.3280592,32.7257211 C34.5364389,32.5536743 34.6646726,32.3110989 34.691388,32.0418082 C34.7448187,31.4861289 34.3387453,30.990292 33.7852033,30.9357927 C33.7798602,30.9357927 33.7755858,30.9357927 33.7713113,30.934724 L30.8668184,30.6087968 C30.8636126,30.6087968 30.8604067,30.6087968 30.8561323,30.6077282 Z M34.5182725,12.4092316 C34.5129294,12.3739673 34.508655,12.3376344 34.5033119,12.3013016 C34.4904885,12.211538 34.4765966,12.1217744 34.4627046,12.0320108 C34.4573615,11.9946093 34.4509498,11.9572078 34.4445381,11.9198064 C34.3985877,11.6344864 34.3462256,11.3502351 34.2895891,11.068121 C34.2799716,11.0232392 34.2714227,10.9772888 34.2618051,10.9313384 C34.2447073,10.852261 34.2286781,10.7721149 34.2105117,10.6930375 C34.1998255,10.6406754 34.1880708,10.5893819 34.176316,10.5380884 C34.1496007,10.4216095 34.1228853,10.3051306 34.0940327,10.1886517 C34.0769349,10.1181231 34.0609057,10.0475946 34.0427393,9.97706608 C34.0267101,9.91294924 34.0096122,9.8488324 33.993583,9.78471556 C33.9754166,9.71739288 33.9583188,9.6500702 33.9401523,9.58274751 C33.9241231,9.52397374 33.9080939,9.46413136 33.8920647,9.4064262 C33.8685552,9.31986847 33.8439771,9.23331073 33.8193989,9.146753 C33.8087128,9.10935151 33.7980267,9.0708814 33.7873405,9.03347991 C33.7510076,8.9105893 33.7146748,8.78983592 33.6783419,8.66908254 C33.6665871,8.63168105 33.6548324,8.59427956 33.6430776,8.55687807 C33.6131564,8.46177142 33.5832352,8.36559616 33.5533141,8.27155812 C33.5426279,8.2394997 33.5330104,8.20957851 33.5233929,8.17752009 C33.4389724,7.91998412 33.3524146,7.6667226 33.2647883,7.41880415 C33.2605138,7.40811801 33.257308,7.39850048 33.2530335,7.38781434 C32.362878,4.89260063 31.294264,2.9145961 30.7749176,2.01802894 C29.0608608,2.33433869 23.9999048,3.45958924 19.9039073,6.30317112 L34.6005558,13.0963504 C34.5770463,12.8665984 34.5492623,12.6368464 34.5182725,12.4092316 Z M36.7591561,21.4839017 C36.0987526,23.5131997 37.2058367,25.7038585 39.2276544,26.3674678 C39.6166299,26.4957014 40.0194974,26.5598183 40.4266394,26.5598183 C42.1000889,26.5598183 43.5737076,25.4869298 44.093054,23.8904205 L44.9009262,21.4090988 C44.973592,21.1857584 45.0259541,20.9592123 45.0569439,20.7315975 C44.9639744,20.7315975 44.8699364,20.7294602 44.776967,20.7251858 C44.7641436,20.7241172 44.7513203,20.7230486 44.7384969,20.7230486 C44.5119507,20.7112938 44.2864732,20.6845785 44.0631328,20.6439711 C44.0503095,20.6418339 44.0364175,20.6396967 44.0235941,20.6375594 C43.9167327,20.6172558 43.8109399,20.5937463 43.7051471,20.5670309 C43.6869807,20.5627565 43.6688143,20.5574134 43.6517164,20.5531389 C43.544855,20.5242864 43.4379936,20.4943652 43.3322009,20.4601695 L41.6170754,19.8959413 C41.5796739,19.8841866 41.5422724,19.874569 41.5048709,19.8660201 C41.4931161,19.8628143 41.4813614,19.8617457 41.4696066,19.8596084 C41.4428913,19.8542654 41.4172445,19.8499909 41.3915978,19.8467851 C41.3830489,19.8457165 41.3745,19.8457165 41.3659511,19.8446478 C41.3360299,19.841442 41.3061087,19.8392894 41.2761875,19.8392894 C41.2740503,19.8392894 41.2697758,19.8392894 41.2676386,19.8392894 C40.8572908,19.8371675 40.4693839,20.057302 40.2620728,20.4184936 C40.2620728,20.4195622 40.2610042,20.4206308 40.2599356,20.4216994 C40.2439064,20.450552 40.2300144,20.4794046 40.2161224,20.5093258 C40.2129166,20.5146688 40.2107793,20.5210805 40.2075735,20.5264236 C40.1926129,20.5616878 40.1787209,20.5980207 40.1658975,20.6354222 L40.1146041,20.7903712 C40.1007121,20.8341844 40.0825457,20.8758604 40.062242,20.9164677 C40.0579675,20.9250166 40.0536931,20.9335655 40.0494186,20.9410458 C40.0280463,20.9795159 40.0056054,21.0169174 39.9799587,21.0511131 C39.9756842,21.0564561 39.9714098,21.0628678 39.9671353,21.0682109 C39.9425572,21.0992007 39.9169105,21.1291219 39.8891265,21.1579745 C39.8848521,21.1611803 39.8805776,21.1665234 39.8763031,21.1707978 C39.8453133,21.200719 39.8121863,21.2274344 39.7779907,21.2530811 C39.771579,21.2573556 39.7651673,21.2626986 39.757687,21.2669731 C39.7224227,21.2915512 39.6850212,21.3150607 39.6465511,21.3342958 C39.6465511,21.3342958 39.6465511,21.3342958 39.6465511,21.3342958 C39.6070124,21.3535308 39.5664051,21.3706287 39.5257978,21.383452 C39.5183175,21.3866579 39.5108372,21.3887951 39.5033569,21.3920009 C39.4627495,21.4037557 39.4210736,21.4144418 39.3793976,21.4219221 C39.3729859,21.4219221 39.3665743,21.4229907 39.3601626,21.4240594 C39.3195552,21.4294024 39.2789479,21.4326083 39.2383406,21.4336769 C39.2340661,21.4336769 39.2308603,21.4347455 39.2265858,21.4347455 C39.2255172,21.4347455 39.2244486,21.4336769 39.2223114,21.4336769 C39.1806354,21.4336769 39.1378909,21.430471 39.0940777,21.4240594 C39.0855288,21.4219221 39.0759113,21.4208535 39.0662937,21.4187163 C39.0235492,21.411236 38.979736,21.4016185 38.9359228,21.3877265 L36.997457,20.7519011 L36.7591561,21.4839017 Z M46.9665571,14.9653563 C46.604297,15.038022 46.2270762,15.0166498 45.8765708,14.9012394 L42.3319781,13.7375188 C40.8113404,13.2395447 39.1710179,14.0752008 38.675181,15.600113 L37.578783,18.9662471 L37.5819889,18.9673157 L38.7232686,19.3413306 C38.7681504,19.2729394 38.816238,19.2066853 38.8664629,19.1414998 C38.8686001,19.138294 38.8707374,19.1350881 38.8728746,19.1329509 C38.9209622,19.0709713 38.9711871,19.0121975 39.0235492,18.9534238 C39.0256864,18.9502179 39.0288922,18.9470121 39.0320981,18.9438062 C39.2468895,18.7087112 39.500151,18.5078117 39.7844023,18.3485882 C39.790814,18.3453824 39.7961571,18.3421766 39.8025688,18.3379021 C39.83249,18.3218729 39.8613426,18.3047751 39.8923324,18.2887458 C40.4544233,18.0034259 41.0763567,17.9019076 41.6876039,17.9916712 C41.6940156,17.9916712 41.7004273,17.9927398 41.7057703,17.9938084 C41.7837792,18.0055631 41.8607194,18.0205237 41.9376596,18.0386902 C41.9472771,18.0408274 41.9568946,18.0429646 41.9665121,18.0451019 C42.044521,18.0643369 42.1214612,18.0857092 42.1984014,18.1113559 L43.9145955,18.6745155 C44.5237055,18.8743463 45.1744914,18.9074734 45.7964248,18.7674849 C47.0296053,18.4928511 48.038377,17.5759803 48.4294897,16.3748582 L49.0225705,14.5496654 L46.9665571,14.9653563 Z M13.6642701,15.4601246 C11.4244551,21.9434058 9.42400972,31.2435535 8.728342,38.3455622 L11.0771556,39.431274 L12.2601113,35.4346576 C12.2729347,35.3908445 12.2889639,35.3491685 12.3071303,35.3085612 C12.6309204,34.6022073 13.2101092,34.0657631 13.9367667,33.7954037 C14.6634242,33.526113 15.4509927,33.5571028 16.1552094,33.8819615 C16.859426,34.2078887 17.3948016,34.7881462 17.6630237,35.5180095 C17.9312458,36.2478729 17.9013247,37.0386473 17.576466,37.7450011 C17.5582996,37.7856085 17.5369273,37.8251472 17.5123492,37.8625487 L15.2554364,41.3633282 L18.2058796,42.7268796 C18.6750012,42.9438083 18.8801751,43.5016248 18.6643151,43.9728836 C18.5072288,44.3169773 18.1684782,44.5200139 17.8136983,44.5200139 C17.6833274,44.5200139 17.5497506,44.49223 17.4236542,44.4334562 L14.2284983,42.9566316 L12.0848586,46.2810898 C11.8016759,46.7202902 11.3325543,46.9650028 10.8441977,46.9650028 C10.6347494,46.9650028 10.4210266,46.920121 10.2169213,46.8250144 C9.53942003,46.5129791 9.20280662,45.7649493 9.41439219,45.0468406 L10.5385741,41.2500551 L7.34448686,39.7732305 C6.98543255,39.6075953 6.76850391,39.2325118 6.80376817,38.8371246 C7.4470738,31.524599 9.54155726,21.6591544 11.8967825,14.8446029 C12.0656236,14.3551777 12.5988619,14.0955045 13.0872185,14.2654141 C13.5755751,14.4353237 13.8341797,14.9706994 13.6642701,15.4601246 Z M15.8998106,36.9072077 C15.99278,36.6699754 15.9959859,36.4103022 15.9072909,36.1687955 C15.8121843,35.9101909 15.6230396,35.7039484 15.3729839,35.588538 C15.1229282,35.4731277 14.8429514,35.4624416 14.5854154,35.5575482 C14.3449772,35.6473118 14.1504895,35.8182901 14.0318733,36.0437676 L11.9747914,42.9961704 L15.8998106,36.9072077 Z M7.52187678,49.3608354 L10.2863812,49.3608354 C10.8025218,49.3608354 11.2214185,49.7808007 11.2214185,50.3001471 C11.2214185,50.8184249 10.8025218,51.2383902 10.2863812,51.2383902 L7.52187678,51.2383902 C7.0046676,51.2383902 6.58577091,50.8184249 6.58577091,50.3001471 C6.58577091,49.7808007 7.0046676,49.3608354 7.52187678,49.3608354 Z M11.2214185,55.6913048 C11.2214185,56.2095826 10.8025218,56.6306165 10.2863812,56.6306165 L3.75180656,56.6306165 C3.23566599,56.6306165 2.8167693,56.2095826 2.8167693,55.6913048 C2.8167693,55.1719584 3.23566599,54.7519931 3.75180656,54.7519931 L10.2863812,54.7519931 C10.8025218,54.7519931 11.2214185,55.1719584 11.2214185,55.6913048 Z M11.2214185,61.0824625 C11.2214185,61.6018089 10.8025218,62.0217742 10.2863812,62.0217742 L0.988370728,62.0217742 C0.471161547,62.0217742 0.0522648555,61.6018089 0.0522648555,61.0824625 C0.0522648555,60.5641847 0.471161547,60.1431508 0.988370728,60.1431508 L10.2863812,60.1431508 C10.8025218,60.1431508 11.2214185,60.5641847 11.2214185,61.0824625 Z" id="Shape"></path>
            </g>
        </g>
    </g>
</svg>