<?xml version="1.0" encoding="UTF-8"?>
<svg width="50px" height="55px" viewBox="0 0 50 55" version="1.1" xmlns="http://www.w3.org/2000/svg" xmlns:xlink="http://www.w3.org/1999/xlink">
    <!-- Generator: Sketch 63.1 (92452) - https://sketch.com -->
    <title>special_5</title>
    <desc>Created with Sketch.</desc>
    <defs>
        <linearGradient x1="8.70123991%" y1="50%" x2="50%" y2="63.1691374%" id="linearGradient-1">
            <stop stop-color="#F9B136" offset="0%"></stop>
            <stop stop-color="#EF3829" offset="100%"></stop>
        </linearGradient>
    </defs>
    <g id="Page-1" stroke="none" stroke-width="1" fill="none" fill-rule="evenodd">
        <g id="special_5" transform="translate(0.000000, -1.000000)" fill="url(#linearGradient-1)">
            <path d="M23.6160311,55.8612502 C20.5269055,54.8354655 18.0532508,51.4329991 16.1345289,45.5804206 C15.8447307,44.7239184 15.555493,44.0238063 15.4949549,44.0361381 C14.7948428,44.1930888 12.2729818,44.5792995 11.3682733,44.6757121 C7.80885622,45.0378197 4.40582931,44.5310933 2.60818357,43.372461 C-1.65134558,40.5972368 -0.565022709,35.130869 5.47982034,28.9290753 L6.77073962,27.5893892 L5.79316115,26.3948825 C2.4512329,22.2682009 0.762331552,18.2256 1.23262303,15.4627076 C1.52242124,13.7373713 2.52354231,12.3494789 4.04428222,11.5535148 C4.59921496,11.2519453 4.70795935,11.1432009 4.82847505,10.7211156 C5.00952886,10.0456672 5.74551541,9.22503942 6.46973065,8.88703494 C7.25392348,8.52492731 8.42432707,8.50082417 9.14854231,8.82649682 C9.75168133,9.10396319 10.4882284,9.81584659 10.7051567,10.3349049 C10.8621073,10.7087838 10.9103136,10.7211156 11.9360984,10.8657345 C12.5151342,10.9503757 13.6614347,11.1914072 14.4820625,11.3847928 C15.3026903,11.5899498 15.9781387,11.7345686 16.0022419,11.7227973 C16.0145737,11.6986942 16.2679369,11.0232457 16.5454033,10.226721 C18.1502239,5.75026363 20.261771,2.76988247 22.6631163,1.5748152 C23.7130042,1.05575691 23.7371073,1.05575691 24.9921522,1.05575691 C26.1266813,1.05575691 26.3559414,1.09163134 26.9590804,1.38142955 C29.8189459,2.70878381 32.0510087,5.91842507 33.7522419,11.1067659 C34.0538114,12.012035 34.3195064,12.8203309 34.3436096,12.8926403 C34.379484,13.0013847 34.6933854,12.9767211 35.4658069,12.8203309 C36.0566141,12.6998152 37.2634526,12.5064296 38.1563898,12.410017 C42.7897979,11.8668556 46.3374437,12.5428646 48.2679369,14.328739 C49.8122194,15.7525058 50.2948428,17.5989184 49.73991,19.9397255 C49.136771,22.4374834 47.3385647,25.2368107 44.4187217,28.2054206 L43.2359863,29.4122592 L44.2012329,30.6179767 C47.5437217,34.7687614 49.2090804,38.7026179 48.7746634,41.4655103 C48.0745513,45.990174 43.2841925,47.4985821 35.5134526,45.6286269 C34.7051567,45.4234699 34.0173764,45.2788511 34.0050446,45.3029542 C33.9932733,45.3270574 33.7275782,46.0148377 33.4260087,46.8472368 C33.1244392,47.6796359 32.798206,48.5243668 32.7264571,48.7177525 C32.5936096,49.0434251 32.6059414,49.1280664 32.8951791,49.5501516 C33.5224212,50.4795238 33.6070625,51.7463399 33.1126679,52.7239184 C32.7869952,53.3393892 31.9181611,54.1359139 31.3391253,54.328739 C30.7841925,54.5097928 30.0599773,54.5462278 29.4568383,54.4133803 C29.0829594,54.3410708 28.9624437,54.3769453 28.5521298,54.7031785 C28.2987665,54.9201067 27.6715244,55.2822143 27.1765692,55.5114744 C26.3800446,55.8976852 26.1507845,55.9576628 25.1855378,55.9823264 C24.5213002,56.005869 23.9176006,55.9576628 23.6160311,55.8612502 Z M26.7897979,54.1476852 C27.7791477,53.6045238 27.863789,53.520443 27.658632,53.2065417 C26.8380042,51.9032906 26.8621073,50.4554206 27.7309414,49.3208915 C28.3946185,48.4520574 29.7701791,47.9329991 30.7959638,48.1622592 C31.1939459,48.2469004 31.3508966,48.2469004 31.423206,48.138156 C31.6406948,47.7883803 32.6177127,44.9890529 32.5571746,44.8562054 C32.5330715,44.7715641 32.3520177,44.6633803 32.1591925,44.6269453 C31.3991029,44.4335596 28.0807172,43.0462278 26.2707396,42.1656224 L24.3402463,41.2244789 L23.3144616,41.622461 C21.9512329,42.1656224 19.0067262,43.1426403 17.9209638,43.4201067 C17.4383405,43.5406224 17.0403585,43.6734699 17.0403585,43.7216762 C17.0403585,43.9632681 18.0661432,46.8707794 18.5364347,47.9929767 C19.7673764,50.8646134 21.6014571,53.3023937 23.1457396,54.122461 C24.3038114,54.7390529 25.703475,54.7390529 26.7897979,54.1476852 Z M43.8396858,44.7356897 C47.6647979,43.7463399 48.4372194,40.7177525 46.0599773,35.9873713 C45.3963002,34.6723489 44.2741029,32.9587838 43.1401342,31.5591202 C42.6575109,30.9436493 42.2230939,30.4369229 42.1989907,30.4369229 C42.1631163,30.4369229 41.4747755,30.9800843 40.6664795,31.6555327 C39.8458517,32.3192099 38.5308293,33.3085596 37.7466365,33.8517211 C36.9501118,34.3948825 36.2141253,34.9257121 36.1053809,35.0344565 C35.960762,35.167304 35.8761208,35.5294116 35.8155827,36.1566538 C35.6827351,37.6168556 35.1760087,40.5972368 34.7656948,42.2984699 C34.5605378,43.1549722 34.4035872,43.8668556 34.4276903,43.8791874 C34.548206,43.9879318 37.7337441,44.6757121 38.578475,44.783896 C39.1093046,44.8562054 39.7130042,44.9408466 39.9058293,44.9649498 C40.6418159,45.0736942 43.1031387,44.9290753 43.8396858,44.7356897 Z M13.3110984,42.9862502 C14.2158069,42.8416314 15.0246634,42.6723489 15.1087441,42.6241426 C15.2292598,42.5518332 15.2051567,42.2138287 14.9517934,40.9711157 C14.6378921,39.4145013 14.2275782,36.7480215 14.0711881,35.2396134 L13.9988786,34.4313175 L12.7079594,33.3696583 C12.0078472,32.7906224 10.5840804,31.4750394 9.54652438,30.4615865 L7.65190554,28.615174 L6.44506698,29.9184251 C3.7057172,32.8629318 2.25784725,35.1314296 1.69058267,37.3270574 C0.894058009,40.4884924 2.42656922,42.4554206 6.22757819,43.1790753 C7.55549299,43.4324386 11.2600894,43.336026 13.3110984,42.9862502 Z M33.3778024,42.0451067 C33.6676006,40.8264968 34.1743271,38.0271695 34.343049,36.6757121 L34.4153585,36.0843444 L34.0173764,36.3259363 C32.5571746,37.2306448 31.1216365,38.0153982 28.7684975,39.1858018 L26.0896858,40.5372592 L27.2724212,41.0921919 C29.4803809,42.129748 32.4730939,43.3365865 32.8710759,43.3489184 C33.0280266,43.3483578 33.136771,43.0585596 33.3778024,42.0451067 Z M18.0532508,41.8999273 C19.2236544,41.5619229 21.673206,40.7536269 22.3974212,40.4638287 C22.7354257,40.3309812 22.7230939,40.3192099 21.3116589,39.4621471 C19.6827351,38.4969004 17.73991,37.2059812 16.5213002,36.3130439 C16.0745513,35.9873713 15.6647979,35.7457794 15.6283629,35.7939856 C15.5319504,35.8903982 15.8817262,38.424591 16.2679369,40.3309812 C16.5936096,41.9963399 16.665919,42.2614774 16.7628921,42.2614774 C16.7987665,42.262035 17.3778024,42.1050843 18.0532508,41.8999273 Z M26.6810535,38.6420798 C28.8408069,37.6403982 30.8682733,36.5664072 33.0644616,35.2390529 C34.5728697,34.3337838 34.6575109,34.2614744 34.6575109,33.8999273 C34.6575109,33.6824386 34.718049,32.4038511 34.7780266,31.0400619 C34.850336,29.6762726 34.8626679,28.0114744 34.8262329,27.3354655 C34.7539235,26.2132681 34.7174885,26.1045238 34.4882284,26.0445462 C34.0297082,25.9240305 33.2337441,25.1392771 32.8957396,24.4514968 C32.6059414,23.8483578 32.5818383,23.703739 32.6423764,22.8225731 L32.7029145,21.8696583 L31.591928,21.0854655 C30.2404706,20.144322 28.2376679,18.8892771 26.7292598,18.020443 C25.8845289,17.5378197 25.5465244,17.4049722 25.3413674,17.4772816 C24.8223091,17.6342323 21.3110984,19.3113623 20.0442822,19.9991426 C17.8480939,21.1936493 15.4708517,22.6415193 15.4108742,22.8349049 C15.2539235,23.3657345 15.1334078,28.7956673 15.2298203,31.0400619 C15.2903585,32.4032906 15.350336,33.549591 15.350336,33.6101291 C15.350336,33.6583354 15.9658069,34.1532906 16.7135647,34.7082233 C19.7062777,36.9402861 24.1463002,39.6555327 24.6048203,39.5467883 C24.7382284,39.5109139 25.6793719,39.1129318 26.6810535,38.6420798 Z M37.2875558,32.4643892 C38.1681611,31.8248152 39.085762,31.1011605 40.968049,29.5804206 C41.2090804,29.3875955 41.2090804,29.3752637 40.7628921,28.8321022 C40.5218607,28.5305327 39.725336,27.7340081 38.9893495,27.0579991 L37.6737665,25.8276179 L36.9495513,26.0451067 L36.225336,26.2743668 L36.225336,28.8203309 C36.225336,30.2199946 36.1894616,31.776609 36.1530266,32.2833354 C36.1048203,32.8023937 36.1048203,33.2127076 36.1530266,33.2127076 C36.2135647,33.2121471 36.7202912,32.8747031 37.2875558,32.4643892 Z M13.841928,28.0843444 C13.841928,25.7312054 13.8178248,23.8007121 13.7937217,23.8007121 C13.5762329,23.8007121 8.94282483,27.4329991 8.84641227,27.6863623 C8.77410285,27.8791874 13.4921522,32.3679767 13.7813898,32.3679767 C13.8178248,32.3674161 13.841928,30.4369229 13.841928,28.0843444 Z M45.1547082,25.3085596 C48.0022419,21.8332233 49.1244392,18.6118107 48.2073988,16.5484699 C47.6765692,15.3539632 46.2286993,14.3887166 44.3223091,13.9419677 C42.8744392,13.6039632 39.0011208,13.6403982 36.7567262,14.0142771 C35.8155827,14.1594565 34.9831836,14.3405103 34.8985423,14.388156 C34.7780266,14.4604655 34.8021298,14.8102412 35.055493,16.0893892 C35.2365468,16.9823264 35.4293719,18.0921919 35.5016813,18.5507121 C35.7309414,19.9868107 35.7068383,19.9386045 36.1412553,19.9386045 C36.7443943,19.9386045 37.6978697,20.4576628 38.1922643,21.0366986 C38.9646858,21.9414072 39.2057172,23.4739184 38.7113226,24.3909587 C38.5667037,24.6566538 38.6390132,24.7530664 40.4372194,26.526609 L42.3195064,28.3847928 L43.3934975,27.2749273 C43.9719728,26.660017 44.7684975,25.7794116 45.1547082,25.3085596 Z M9.34136743,25.3567659 C10.1619952,24.6930888 11.4770177,23.703739 12.2612105,23.1605776 C13.0577351,22.6174161 13.7937217,22.0865865 13.9024661,21.9778421 C14.0470849,21.8449946 14.1317262,21.4834475 14.1922643,20.8315417 C14.31278,19.4800843 14.9164795,16.004748 15.2780266,14.5210036 C15.4467486,13.8332233 15.5678248,13.2295238 15.5313898,13.1813175 C15.4467486,13.0484699 12.5874437,12.3606897 11.7303809,12.2642771 L11.0667037,12.1919677 L10.8497755,12.8192099 C10.4276903,14.0260484 9.0880042,14.9912951 7.86939433,14.9912951 C7.35033604,14.9912951 6.3850894,14.6656224 5.93890106,14.3276179 C5.56502213,14.0501516 4.93721944,13.2659587 4.82903559,12.9156224 C4.75672617,12.7227973 4.14125532,13.0843444 3.62219702,13.6275058 C1.83632258,15.4739184 2.41535846,18.9128197 5.21524635,23.196452 C5.91479792,24.270443 7.68890106,26.5748187 7.80941675,26.5748187 C7.84529119,26.5759363 8.53307146,26.0327749 9.34136743,25.3567659 Z M17.4618831,19.8063175 C18.0650221,19.4565417 19.754484,18.5636045 21.238789,17.8276179 L23.9299324,16.4761605 L22.144058,15.6555327 C20.2735423,14.7990305 17.4142374,13.6645013 17.1121073,13.6645013 C16.8464123,13.6645013 16.0381163,17.3690977 15.6642374,20.3371471 L15.591928,20.9285148 L15.98991,20.6869229 C16.195067,20.5546359 16.8710759,20.1560933 17.4618831,19.8063175 Z M34.0414795,20.4217883 L34.3312777,20.1801964 L34.113789,18.7805327 C33.8845289,17.2967883 33.4019055,14.895443 33.2931611,14.7984699 C33.2208517,14.7261605 31.2298203,15.2934251 29.3475333,15.9447704 C26.9702912,16.7530664 27.0426006,16.5479094 28.7561656,17.586026 C29.5767934,18.0686493 30.9641253,18.9615865 31.8211881,19.5647255 C32.6900221,20.1560933 33.474215,20.6387166 33.5706275,20.6504921 C33.6676006,20.6510484 33.8845289,20.542304 34.0414795,20.4217883 Z M29.3475333,14.4492547 C30.3733181,14.0994789 31.6036993,13.7132681 32.0868831,13.5921919 C33.100336,13.3388287 33.0762329,13.5563175 32.3402463,11.3119229 C31.2785872,8.16281969 29.9512329,5.72503942 28.4428248,4.19252821 C27.9119952,3.66169861 27.1760087,3.05799906 26.8139011,2.86517395 C26.210762,2.5395013 26.0414795,2.50306633 25.0039235,2.50306633 C23.9904706,2.50306633 23.7853136,2.5395013 23.2303809,2.84107081 C21.7701791,3.6011605 20.0448428,5.72503942 18.9226455,8.12638471 C18.1743271,9.73120534 17.341928,12.0843444 17.4747755,12.2048601 C17.5353136,12.2530664 18.0179369,12.446452 18.5487665,12.6392771 C19.9002239,13.1095686 22.5790356,14.255869 24.2443943,15.0888287 L25.644058,15.8007121 L26.5610984,15.4386045 C27.0672643,15.2452188 28.3223091,14.7990305 29.3475333,14.4492547 Z" id="Shape" transform="translate(24.999866, 28.521993) scale(-1, 1) rotate(-180.000000) translate(-24.999866, -28.521993) "></path>
        </g>
    </g>
</svg>