<?xml version="1.0" encoding="UTF-8"?>
<svg width="53px" height="56px" viewBox="0 0 53 56" version="1.1" xmlns="http://www.w3.org/2000/svg" xmlns:xlink="http://www.w3.org/1999/xlink">
    <!-- Generator: Sketch 63.1 (92452) - https://sketch.com -->
    <title>special_6</title>
    <desc>Created with Sketch.</desc>
    <defs>
        <linearGradient x1="26.9512054%" y1="50%" x2="50%" y2="63.1691374%" id="linearGradient-1">
            <stop stop-color="#F9B136" offset="0%"></stop>
            <stop stop-color="#EF3829" offset="100%"></stop>
        </linearGradient>
        <linearGradient x1="-1.11022302e-14%" y1="50%" x2="50%" y2="63.1691374%" id="linearGradient-2">
            <stop stop-color="#F9B136" offset="0%"></stop>
            <stop stop-color="#EF3829" offset="100%"></stop>
        </linearGradient>
        <linearGradient x1="-1.11022302e-14%" y1="50%" x2="50%" y2="63.1691374%" id="linearGradient-3">
            <stop stop-color="#F9B136" offset="0%"></stop>
            <stop stop-color="#EF3829" offset="100%"></stop>
        </linearGradient>
        <linearGradient x1="5.49469387%" y1="50%" x2="50%" y2="63.1691374%" id="linearGradient-4">
            <stop stop-color="#F9B136" offset="0%"></stop>
            <stop stop-color="#EF3829" offset="100%"></stop>
        </linearGradient>
        <linearGradient x1="29.3669721%" y1="50%" x2="50%" y2="63.1691374%" id="linearGradient-5">
            <stop stop-color="#F9B136" offset="0%"></stop>
            <stop stop-color="#EF3829" offset="100%"></stop>
        </linearGradient>
    </defs>
    <g id="Page-1" stroke="none" stroke-width="1" fill="none" fill-rule="evenodd">
        <g id="special_6">
            <path d="M32.722135,31.7896389 L32.8916797,31.4505495 C33.1459969,30.9419152 33.3155416,30.3485086 33.5698587,29.755102 C34.9262166,30.5180534 36.5368917,32.1287284 36.6216641,33.9937206 L36.7912088,36.0282575 L37.8084772,34.2480377 C38.4866562,33.1459969 38.9105181,31.7896389 38.9952904,30.3485086 C39.1648352,27.3814757 37.1302983,24.6687598 34.9262166,23.6514914 C35.0957614,22.0408163 35.2653061,20.3453689 35.2653061,18.6499215 C35.2653061,8.73155416 27.5510204,0.762951334 27.2119309,0.423861852 L26.7032967,0 L26.2794349,0.423861852 C25.9403454,0.762951334 18.2260597,8.64678179 18.2260597,18.6499215 C18.2260597,20.3453689 18.310832,22.0408163 18.5651491,23.6514914 C16.3610675,24.7535322 14.3265306,27.466248 14.4960754,30.433281 C14.5808477,31.8744113 15.0047096,33.2307692 15.6828885,34.33281 L16.700157,36.1130298 L16.8697017,34.0784929 C16.9544741,32.1287284 18.6499215,30.5180534 20.0062794,29.755102 C20.1758242,30.3485086 20.4301413,30.9419152 20.6844584,31.4505495 L20.8540031,31.7896389 L24.4144427,31.7896389 L24.7535322,34.5871272 L28.9921507,34.5871272 L29.3312402,31.7896389 L32.722135,31.7896389 Z M37.6389325,30.2637363 C37.6389325,30.8571429 37.4693878,31.4505495 37.299843,31.9591837 C36.5368917,30.3485086 35.0957614,29.0769231 33.8241758,28.3987441 C34.1632653,27.2967033 34.4175824,26.1098901 34.5871272,24.9230769 C36.1978022,25.9403454 37.8084772,27.9748823 37.6389325,30.2637363 Z M16.021978,32.043956 C15.8524333,31.4505495 15.7676609,30.9419152 15.6828885,30.3485086 C15.5133438,27.9748823 17.1240188,25.9403454 18.6499215,25.0078493 C18.8194662,26.1946625 19.0737834,27.3814757 19.4128728,28.4835165 C18.2260597,29.0769231 16.7849294,30.433281 16.021978,32.043956 Z M24.0753532,30.5180534 L21.5321821,30.5180534 C20.1758242,27.2967033 19.4976452,23.0580848 19.4976452,18.6499215 C19.4976452,10.5965463 25.0926217,3.7299843 26.7032967,1.86499215 C28.3987441,3.64521193 33.9089482,10.5117739 33.9089482,18.6499215 C33.9089482,23.1428571 33.1459969,27.2967033 31.8744113,30.5180534 L29.3312402,30.5180534 L30.0941915,24.3296703 L23.3971743,24.3296703 L24.0753532,30.5180534 Z M25.6860283,33.3155416 L24.7535322,25.5164835 L28.5682889,25.5164835 L27.6357928,33.3155416 L25.6860283,33.3155416 Z" id="Shape" fill="url(#linearGradient-1)"></path>
            <path d="M26.7032967,11.1051805 C24.7535322,11.1051805 23.0580848,12.7158556 23.0580848,14.7503925 C23.0580848,16.700157 24.6687598,18.3956044 26.7032967,18.3956044 C28.7378336,18.3956044 30.3485086,16.7849294 30.3485086,14.7503925 C30.3485086,12.7158556 28.7378336,11.1051805 26.7032967,11.1051805 Z M26.7032967,17.0392465 C25.4317111,17.0392465 24.3296703,16.021978 24.3296703,14.6656201 C24.3296703,13.3940345 25.3469388,12.2919937 26.7032967,12.2919937 C27.9748823,12.2919937 29.0769231,13.3092622 29.0769231,14.6656201 C29.0769231,16.021978 27.9748823,17.0392465 26.7032967,17.0392465 Z" id="Shape" fill="url(#linearGradient-2)"></path>
            <rect id="Rectangle" fill="url(#linearGradient-3)" x="43.4882261" y="52.0502355" width="1.27158556" height="1.27158556"></rect>
            <path d="M49.5918367,22.2951334 C50.5243328,22.2103611 51.3720565,22.3799058 51.9654631,22.88854 C52.4740973,23.3124019 53.0675039,24.0753532 52.8979592,25.6012559 L52.8979592,25.6012559 L52.8979592,39.3343799 C52.8979592,40.5211931 52.389325,41.7080063 51.5416013,42.55573 L51.5416013,42.55573 L46.0313972,48.0659341 C45.6923077,48.3202512 45.522763,48.744113 45.522763,49.1679749 L45.522763,49.1679749 L45.522763,49.5918367 L47.2182104,49.5918367 L47.2182104,55.1020408 L45.9466248,55.1020408 L45.9466248,50.8634223 L33.0612245,50.8634223 L33.0612245,55.1020408 L31.7896389,55.1020408 L31.7896389,49.6766091 L33.4850863,49.6766091 L33.4850863,45.8618524 C33.4850863,44.5054945 34.0784929,43.2339089 35.010989,42.3014129 L35.010989,42.3014129 L42.3014129,35.1805338 C42.8100471,34.5871272 43.5729984,34.33281 44.3359498,34.33281 C45.0989011,34.33281 45.8618524,34.6718995 46.3704867,35.1805338 C46.9638932,35.689168 47.2182104,36.4521193 47.2182104,37.2150706 C47.2182104,37.978022 46.8791209,38.7409733 46.3704867,39.2496075 L46.3704867,39.2496075 L42.8948195,42.6405024 L42.0470958,41.7080063 L45.522763,38.3171115 C45.8618524,38.0627943 46.0313972,37.6389325 46.0313972,37.2150706 C46.0313972,36.7912088 45.9466248,36.4521193 45.6075353,36.1130298 C45.3532182,35.7739403 44.9293564,35.6043956 44.5054945,35.6043956 L44.5054945,35.6043956 L44.3503545,35.6121774 C43.9968603,35.6481063 43.700157,35.8057299 43.4034537,36.0282575 L43.4034537,36.0282575 L36.1130298,43.1491366 C35.4348509,43.8273155 35.010989,44.7598116 35.010989,45.7770801 L35.010989,45.7770801 L35.010989,49.5918367 L44.5054945,49.5918367 L44.5054945,49.1679749 C44.5054945,48.4050235 44.844584,47.6420722 45.3532182,47.133438 L45.3532182,47.133438 L50.8634223,41.6232339 C51.4568289,41.0298273 51.7959184,40.1821036 51.7959184,39.3343799 L51.7959184,39.3343799 L51.7959184,25.6012559 C51.7959184,24.7535322 51.6263736,24.1601256 51.2025118,23.8210361 C50.7786499,23.4819466 50.2700157,23.4819466 49.8461538,23.566719 C49.1679749,23.6514914 48.744113,24.4992151 48.744113,25.6012559 L48.744113,25.6012559 L48.744113,34.6718995 L47.4725275,34.6718995 L47.4725275,25.6012559 C47.4725275,23.8210361 48.3202512,22.5494505 49.5918367,22.2951334 Z M27.3814757,38.3171115 L27.3814757,41.9623234 L26.1098901,41.9623234 L26.1098901,38.3171115 L27.3814757,38.3171115 Z M23.2276296,36.1978022 L23.2276296,39.7582418 L21.956044,39.7582418 L21.956044,36.1978022 L23.2276296,36.1978022 Z M31.4505495,36.1978022 L31.4505495,39.7582418 L30.1789639,39.7582418 L30.1789639,36.1978022 L31.4505495,36.1978022 Z" id="Path-2" fill="url(#linearGradient-4)"></path>
            <rect id="Rectangle" fill="url(#linearGradient-3)" x="8.64678179" y="52.0502355" width="1.27158556" height="1.27158556"></rect>
            <path d="M19.66719,45.7770801 C19.66719,44.4207221 19.1585557,43.1491366 18.1412873,42.2166405 L10.8508634,35.0957614 C10.3422292,34.5871272 9.57927786,34.2480377 8.81632653,34.2480377 C8.81632653,34.2480377 8.81632653,34.2480377 8.73155416,34.2480377 C7.96860283,34.2480377 7.20565149,34.5871272 6.69701727,35.0957614 C6.18838305,35.6043956 5.84929356,36.3673469 5.84929356,37.1302983 C5.84929356,37.8932496 6.18838305,38.6562009 6.69701727,39.1648352 L10.1726845,42.55573 L11.0204082,41.6232339 L7.54474097,38.2323391 C7.20565149,37.8932496 7.03610675,37.5541601 7.03610675,37.1302983 C7.03610675,36.7064364 7.20565149,36.2825746 7.4599686,36.0282575 C7.79905808,35.689168 8.13814757,35.5196232 8.56200942,35.5196232 C8.56200942,35.5196232 8.56200942,35.5196232 8.56200942,35.5196232 C8.98587127,35.5196232 9.40973312,35.689168 9.66405024,35.9434851 L16.9544741,43.0643642 C17.6326531,43.7425432 18.0565149,44.7598116 18.0565149,45.6923077 L18.0565149,49.5070644 L8.98587127,49.5070644 L8.98587127,49.0832025 C8.98587127,48.3202512 8.64678179,47.5572998 8.13814757,47.0486656 L2.62794349,41.5384615 C2.03453689,40.9450549 1.69544741,40.0973312 1.69544741,39.2496075 L1.69544741,25.6012559 C1.69544741,24.7535322 1.86499215,24.1601256 2.288854,23.8210361 C2.71271586,23.4819466 3.22135008,23.4819466 3.64521193,23.566719 C4.32339089,23.6514914 4.74725275,24.4992151 4.74725275,25.6012559 L4.74725275,34.6718995 L5.93406593,34.6718995 L5.93406593,25.6012559 C5.93406593,23.8210361 5.08634223,22.4646782 3.7299843,22.2951334 C2.79748823,22.1255887 1.94976452,22.3799058 1.35635793,22.88854 C0.847723705,23.3124019 0.339089482,24.0753532 0.339089482,25.6012559 L0.339089482,39.3343799 C0.339089482,40.5211931 0.847723705,41.7080063 1.69544741,42.55573 L7.20565149,48.0659341 C7.54474097,48.4050235 7.71428571,48.744113 7.71428571,49.1679749 L7.71428571,49.5918367 L6.0188383,49.5918367 L6.0188383,55.1020408 L7.29042386,55.1020408 L7.29042386,50.8634223 L20.1758242,50.8634223 L20.1758242,55.1020408 L21.4474097,55.1020408 L21.4474097,49.5918367 L19.7519623,49.5918367 L19.7519623,45.7770801 L19.66719,45.7770801 Z" id="Path" fill="url(#linearGradient-5)"></path>
        </g>
    </g>
</svg>