<?xml version="1.0" encoding="UTF-8"?>
<svg width="61px" height="61px" viewBox="0 0 61 61" version="1.1" xmlns="http://www.w3.org/2000/svg" xmlns:xlink="http://www.w3.org/1999/xlink">
    <!-- Generator: Sketch 63.1 (92452) - https://sketch.com -->
    <title>special_1</title>
    <desc>Created with Sketch.</desc>
    <defs>
        <linearGradient x1="-1.11022302e-14%" y1="50%" x2="50%" y2="63.1691374%" id="linearGradient-1">
            <stop stop-color="#F9B136" offset="0%"></stop>
            <stop stop-color="#EF3829" offset="100%"></stop>
        </linearGradient>
    </defs>
    <g id="Page-1" stroke="none" stroke-width="1" fill="none" fill-rule="evenodd">
        <g id="special_1" fill="url(#linearGradient-1)">
            <path d="M59.958,31.5 L53.958,31.5 C53.406,31.5 52.958,31.052 52.958,30.5 C52.958,29.948 53.406,29.5 53.958,29.5 L59.958,29.5 C60.51,29.5 60.958,29.948 60.958,30.5 C60.958,31.052 60.51,31.5 59.958,31.5 Z M51.464,52.006 C51.208,52.006 50.953,51.908 50.758,51.713 L46.515,47.471 C46.124,47.08 46.124,46.448 46.515,46.057 C46.906,45.666 47.539,45.666 47.929,46.057 L52.172,50.299 C52.562,50.69 52.562,51.322 52.172,51.713 C51.977,51.908 51.72,52.006 51.464,52.006 Z M47.929,14.943 C47.734,15.139 47.478,15.236 47.222,15.236 C46.966,15.236 46.71,15.138 46.515,14.943 C46.124,14.552 46.124,13.92 46.515,13.529 L50.758,9.287 C51.148,8.896 51.78,8.896 52.172,9.287 C52.562,9.678 52.562,10.31 52.172,10.701 L47.929,14.943 Z M30.958,50.5 C19.93,50.5 10.958,41.528 10.958,30.5 C10.958,19.471 19.93,10.5 30.958,10.5 C41.987,10.5 50.959,19.471 50.959,30.5 C50.959,41.528 41.987,50.5 30.958,50.5 Z M30.958,12.5 C21.034,12.5 12.958,20.575 12.958,30.5 C12.958,40.425 21.034,48.5 30.958,48.5 C40.883,48.5 48.958,40.425 48.958,30.5 C48.958,20.575 40.883,12.5 30.958,12.5 Z M26.714,45.154 C26.519,45.38 26.242,45.5 25.958,45.5 C25.804,45.5 25.649,45.465 25.505,45.392 C25.096,45.184 24.882,44.723 24.985,44.275 L27.701,32.5 L22.958,32.5 C22.566,32.5 22.211,32.271 22.048,31.916 C21.885,31.56 21.945,31.142 22.202,30.846 L35.202,15.846 C35.503,15.498 36.002,15.401 36.411,15.609 C36.821,15.817 37.037,16.278 36.932,16.726 L34.215,28.5 L38.958,28.5 C39.351,28.5 39.705,28.729 39.868,29.084 C40.031,29.44 39.971,29.858 39.714,30.154 L26.714,45.154 Z M32.958,30.5 C32.653,30.5 32.365,30.361 32.176,30.123 C31.986,29.885 31.916,29.573 31.983,29.275 L34.079,20.195 L25.148,30.5 L28.958,30.5 C29.263,30.5 29.551,30.639 29.74,30.877 C29.93,31.115 30,31.427 29.932,31.725 L27.837,40.805 L36.768,30.5 L32.958,30.5 Z M30.958,8.5 C30.406,8.5 29.958,8.052 29.958,7.5 L29.958,1.5 C29.958,0.948 30.406,0.5 30.958,0.5 C31.51,0.5 31.959,0.948 31.959,1.5 L31.959,7.5 C31.959,8.052 31.51,8.5 30.958,8.5 Z M14.695,15.236 C14.439,15.236 14.183,15.138 13.988,14.943 L9.745,10.701 C9.354,10.31 9.354,9.678 9.745,9.287 C10.135,8.896 10.768,8.896 11.159,9.287 L15.402,13.529 C15.794,13.92 15.794,14.552 15.402,14.943 C15.207,15.139 14.95,15.236 14.695,15.236 Z M7.958,31.5 L1.959,31.5 C1.406,31.5 0.958,31.052 0.958,30.5 C0.958,29.948 1.406,29.5 1.959,29.5 L7.958,29.5 C8.511,29.5 8.958,29.948 8.958,30.5 C8.958,31.052 8.511,31.5 7.958,31.5 Z M13.988,46.057 C14.379,45.666 15.012,45.666 15.402,46.057 C15.794,46.448 15.794,47.08 15.402,47.471 L11.159,51.713 C10.964,51.908 10.708,52.006 10.452,52.006 C10.196,52.006 9.94,51.908 9.745,51.713 C9.354,51.322 9.354,50.69 9.745,50.299 L13.988,46.057 Z M30.958,52.5 C31.51,52.5 31.959,52.948 31.959,53.5 L31.959,59.5 C31.959,60.052 31.51,60.5 30.958,60.5 C30.406,60.5 29.958,60.052 29.958,59.5 L29.958,53.5 C29.958,52.948 30.406,52.5 30.958,52.5 Z" id="Shape"></path>
        </g>
    </g>
</svg>