<?xml version="1.0" encoding="UTF-8"?>
<svg width="53px" height="53px" viewBox="0 0 53 53" version="1.1" xmlns="http://www.w3.org/2000/svg" xmlns:xlink="http://www.w3.org/1999/xlink">
    <!-- Generator: Sketch 63.1 (92452) - https://sketch.com -->
    <title>special_4</title>
    <desc>Created with Sketch.</desc>
    <defs>
        <linearGradient x1="-1.11022302e-14%" y1="50%" x2="50%" y2="50.7026742%" id="linearGradient-1">
            <stop stop-color="#F9B136" offset="0%"></stop>
            <stop stop-color="#EF3829" offset="100%"></stop>
        </linearGradient>
        <linearGradient x1="-1.11022302e-14%" y1="50%" x2="50%" y2="59.9956568%" id="linearGradient-2">
            <stop stop-color="#F9B136" offset="0%"></stop>
            <stop stop-color="#EF3829" offset="100%"></stop>
        </linearGradient>
    </defs>
    <g id="Page-1" stroke="none" stroke-width="1" fill="none" fill-rule="evenodd">
        <g id="special_4">
            <g id="Group" transform="translate(26.500000, 26.507064) scale(-1, 1) rotate(-180.000000) translate(-26.500000, -26.507064) translate(0.000000, 0.007064)">
                <path d="M17.1745487,52.768593 C16.6408458,52.5975275 15.6479101,51.5727531 15.4876374,51.0282575 C15.210263,50.0887461 15.4126276,49.4374019 16.2134517,48.6371173 C16.5976746,48.2421016 16.9500589,47.9965659 17.2382261,47.911303 C17.8679847,47.7299843 35.0554847,47.7299843 35.685783,47.911303 C36.5718701,48.1784243 37.5648057,49.4595271 37.5648057,50.3450746 C37.5648057,51.2311617 36.5718701,52.5122645 35.685783,52.7788462 C35.0884027,52.9499117 17.7298371,52.9396586 17.1745487,52.768593 Z M35.6436911,50.985626 C35.7823783,50.8469388 35.8573881,50.6332418 35.8573881,50.3450746 C35.8573881,50.0569074 35.782918,49.8432104 35.6436911,49.7045232 C35.4299941,49.4908261 35.2913069,49.4908261 26.462814,49.4908261 C17.634321,49.4908261 17.4950942,49.4908261 17.2819368,49.7045232 C17.1432496,49.8432104 17.0682398,50.0569074 17.0682398,50.3450746 C17.0682398,50.6332418 17.1432496,50.8469388 17.2819368,50.985626 C17.4956338,51.199323 17.634321,51.199323 26.462814,51.199323 C35.2913069,51.199323 35.4299941,51.199323 35.6436911,50.985626 Z" id="Shape" fill="url(#linearGradient-1)"></path>
                <path d="M18.8830455,45.9362245 C18.3067111,45.7549058 17.356407,44.7403846 17.1858811,44.1214188 C16.9721841,43.3740188 17.0898254,40.6197017 17.3671998,39.5415031 C17.6445742,38.5167288 18.1998626,37.299843 18.7659439,36.4882261 C19.0114796,36.1466346 19.2035911,35.8368819 19.2035911,35.8050432 C19.2035911,35.7624117 19.0541111,35.6981947 18.8619996,35.666356 C18.6483026,35.6129317 18.296458,35.3566032 17.9224882,34.9831731 C16.8977139,33.9583987 16.8016582,32.9120389 17.6127355,31.8554258 C17.7832614,31.6417288 17.9224882,31.4285714 17.9116954,31.3751472 C17.9116954,31.2790914 17.2819368,30.7664345 17.2393053,30.8198587 C17.2285126,30.8414443 17.0148155,31.2040816 16.7692798,31.6314757 C15.6694957,33.4997057 13.833644,34.9087029 11.6556613,35.5282084 C11.0151099,35.7095271 10.545624,35.7629513 9.59531986,35.7629513 C8.13289835,35.7629513 7.38549843,35.5816327 6.01913265,34.9194957 C4.39643838,34.1294643 3.09428964,32.8802002 2.29346546,31.3433085 C1.62107535,30.0622057 0.809458399,27.1049843 0.425235479,24.5854101 C0.0194270016,21.9589874 -0.0232044741,20.4323489 0.00863422292,11.1662088 L0.0404729199,2.25191327 L0.296801413,1.77163462 C1.25735871,-0.0750098116 3.44613422,-0.566620879 4.87671703,0.736067504 L5.11145997,0.949764521 L5.35699568,0.736067504 C6.40335557,-0.224489796 8.09026688,-0.224489796 9.14687991,0.736067504 L9.38162284,0.949764521 L9.62715856,0.736067504 C10.4598214,-0.0323783359 11.7625098,-0.214236656 12.7446527,0.29842033 C13.3852041,0.629218995 13.85469,1.12029042 14.196821,1.77163462 C14.431564,2.22007457 14.4531495,2.41218603 14.5065738,4.54753728 C14.5707908,7.10974294 14.5918367,7.20579867 15.3500294,7.88898155 C15.7450451,8.25215856 16.214531,8.44427002 16.8550824,8.50794741 C17.0364011,8.52953297 17.3569466,8.3692602 17.869064,7.98503728 C21.9789541,4.95334576 27.1141582,4.27016287 31.7582908,6.13839286 C32.9325451,6.61867151 34.0960067,7.2700157 35.0781495,8.00662284 C35.8573881,8.59375 35.9426511,8.61533556 36.8287382,8.32716837 C37.3624411,8.15610283 38.0029925,7.56897567 38.2166896,7.05685832 C38.3127453,6.85395408 38.3769623,5.92523548 38.4195938,4.49465267 C38.4730181,2.41272567 38.4946036,2.22061421 38.7293465,1.77217425 C39.6796507,-0.0744701727 41.8786794,-0.56608124 43.3092622,0.736607143 L43.5440051,0.95030416 L43.7895408,0.736607143 C43.9174352,0.618965856 44.2379808,0.405808477 44.5045624,0.267121272 C45.433281,-0.213157378 46.7570153,-0.0107927786 47.5788854,0.736607143 L47.8136283,0.95030416 L48.0591641,0.736607143 C48.8918269,-0.031838697 50.1945153,-0.213697017 51.1766582,0.298959969 C51.8064168,0.629758634 52.2872351,1.11003728 52.6282869,1.77217425 L52.8846154,2.2524529 L52.8846154,11.967033 C52.8846154,22.1197998 52.8738226,22.5040228 52.393544,25.2049156 C51.9769427,27.6392268 51.2511283,30.1690542 50.6321625,31.3433085 C49.020261,34.4500098 45.3372253,36.2966542 41.995781,35.6884812 C40.2025608,35.3684753 38.7611852,34.5994898 37.4584969,33.2757555 C36.7110969,32.5175628 35.8892268,31.3756868 35.7181613,30.8738226 C35.6755298,30.7561813 35.0241856,31.2262068 35.0133929,31.3756868 C35.0026001,31.4291111 35.1412873,31.6428081 35.3123528,31.8559655 C36.1234301,32.9131181 36.0273744,33.9589384 35.0026001,34.9837127 C34.6291699,35.3571429 34.2767857,35.6134714 34.0630887,35.6668956 C33.8709772,35.6987343 33.7214973,35.7629513 33.7214973,35.79479 C33.7214973,35.8266287 33.9351943,36.179013 34.2017759,36.5740286 C35.3333987,38.2711931 35.7494604,39.6483516 35.8244702,41.9866071 C35.8989403,44.0787873 35.8136774,44.4203787 35.0128532,45.2212029 C33.8704376,46.3636185 32.7177688,46.3636185 31.586146,45.2212029 C30.9774333,44.623283 30.7318976,44.1003728 30.7318976,43.41719 C30.7318976,42.9477041 30.411352,42.6589973 29.8776491,42.6589973 C29.3439462,42.6589973 29.0234007,42.9471644 29.0234007,43.41719 C29.0234007,44.1003728 28.777865,44.623283 28.1691523,45.2212029 C27.0375294,46.3636185 25.8848607,46.3636185 24.7526982,45.2212029 C24.1439855,44.623283 23.8984498,44.1003728 23.8984498,43.41719 C23.8984498,42.9477041 23.5779042,42.6589973 23.0442013,42.6589973 C22.5104984,42.6589973 22.1899529,42.9471644 22.1899529,43.41719 C22.1899529,44.1003728 21.9444172,44.623283 21.3357045,45.2212029 C20.5483713,46.0214874 19.8225569,46.2351845 18.8830455,45.9362245 Z M20.2704572,44.1532575 C20.3880985,44.0356162 20.4841542,43.8008732 20.4841542,43.6087618 C20.4841542,42.9255789 20.72969,42.4026688 21.3384027,41.8047488 C22.1926511,40.9402473 22.9718897,40.7481358 23.9006083,41.1749902 C24.8401197,41.6018446 25.6085655,42.6589973 25.6085655,43.5450844 C25.6085655,44.0787873 25.9075255,44.3669545 26.462814,44.3669545 C26.9965169,44.3669545 27.3170624,44.0787873 27.3170624,43.6087618 C27.3170624,42.9255789 27.5625981,42.4026688 28.1713108,41.8047488 C29.3029337,40.6623332 30.4561421,40.6623332 31.5877649,41.8047488 C32.1964776,42.4026688 32.4420133,42.9255789 32.4420133,43.6087618 C32.4420133,44.0782476 32.7620192,44.3669545 33.2962618,44.3669545 C33.584429,44.3669545 33.798126,44.2924843 33.947606,44.1430043 C34.161303,43.9293073 34.1720958,43.8440443 34.1289246,42.0826629 C34.0862932,40.4281299 34.0544545,40.1718014 33.7765404,39.3601845 C33.4031103,38.2711931 32.8478218,37.3743132 31.9827806,36.4990188 L31.3308968,35.8266287 L26.4520212,35.8266287 L21.5839384,35.8266287 L20.9007555,36.5524431 C20.0465071,37.4277374 19.5235969,38.2819859 19.139374,39.4028159 C18.8722527,40.1712618 18.8404141,40.438383 18.7977826,42.0826629 C18.7551511,43.8332516 18.7659439,43.9293073 18.9791013,44.1430043 C19.2780612,44.4419643 19.9720369,44.4522174 20.2704572,44.1532575 Z M11.1111656,33.9583987 C13.0646586,33.5525903 14.8368328,32.0367445 15.6802885,30.0940443 L15.9150314,29.5387559 L15.3494898,28.8663658 C13.7910126,26.9981358 12.6804356,24.6604199 12.1893642,22.19427 C11.9438285,20.9131672 11.9438285,18.2872841 12.1893642,17.0164345 C12.6593897,14.6463403 13.8012657,12.2336146 15.2210557,10.5472429 C15.488177,10.2374902 15.6910812,9.97090856 15.6694957,9.949323 C15.6479101,9.92827708 15.3705357,9.77825746 15.060783,9.61852433 C14.313383,9.21271586 13.6091542,8.43347724 13.192553,7.55818289 L12.8509615,6.8431613 L12.7975373,4.56912284 L12.744113,2.2842916 L12.3917288,1.97453885 C12.1035616,1.71821036 11.9540816,1.66478611 11.5056417,1.66478611 C11.025363,1.66478611 10.9185145,1.70741758 10.597969,2.02796311 L10.234792,2.39060047 L10.234792,4.16277473 L10.234792,5.93494898 L9.38054356,5.93494898 L8.52629513,5.93494898 L8.52629513,4.16277473 L8.52629513,2.39060047 L8.16365777,2.02796311 C7.84311224,1.70741758 7.73680338,1.66478611 7.24573195,1.66478611 C6.75466052,1.66478611 6.64781201,1.70741758 6.32780612,2.02796311 L5.96462912,2.39060047 L5.96462912,4.16277473 L5.96462912,5.93494898 L5.11038069,5.93494898 L4.25721154,5.93494898 L4.25721154,4.16277473 L4.25721154,2.39060047 L3.89457418,2.02796311 C3.57402865,1.70741758 3.46771978,1.66478611 2.97664835,1.66478611 C2.48557692,1.66478611 2.37872841,1.70741758 2.04792975,2.03821625 L1.68475275,2.40139325 L1.72738422,12.4149333 C1.75922292,22.1403061 1.7700157,22.4711048 1.99396586,23.9232732 C2.43161303,26.6457516 3.21085165,29.5171703 3.86219584,30.7556417 C4.32142857,31.6417288 5.62357732,32.9336244 6.48861852,33.3604788 C7.886823,34.0755004 9.5737343,34.2891974 11.1111656,33.9583987 Z M33.9351943,33.9049745 C34.0738815,33.7662873 34.1488913,33.5525903 34.1488913,33.2644231 C34.1488913,32.9762559 34.0744211,32.7625589 33.9351943,32.6238717 C33.7214973,32.4101746 33.58281,32.4101746 26.4622743,32.4101746 C19.3417386,32.4101746 19.2030514,32.4101746 18.9893544,32.6238717 C18.8506672,32.7625589 18.7756574,32.9762559 18.7756574,33.2644231 C18.7756574,33.5525903 18.8506672,33.7662873 18.9893544,33.9049745 C19.2030514,34.1186715 19.3417386,34.1186715 26.4622743,34.1186715 C33.58281,34.1186715 33.7220369,34.1186715 33.9351943,33.9049745 Z M44.9524627,33.9157673 C45.4009027,33.798126 46.0625,33.5525903 46.4364698,33.3604788 C47.301511,32.9336244 48.6036597,31.6417288 49.0628925,30.7556417 C49.927394,29.0903159 50.8350667,25.2788462 51.1232339,22.0550432 C51.1874509,21.3292288 51.2300824,17.0693191 51.2300824,11.6141091 L51.2300824,2.39060047 L50.8669054,2.02796311 C50.5468995,1.70741758 50.440051,1.66478611 49.9489796,1.66478611 C49.4579082,1.66478611 49.3510597,1.70741758 49.0310538,2.02796311 L48.6678768,2.39060047 L48.6678768,4.16277473 L48.6678768,5.93494898 L47.8136283,5.93494898 L46.9593799,5.93494898 L46.9593799,4.16277473 L46.9593799,2.39060047 L46.5962029,2.02796311 C46.276197,1.70741758 46.1693485,1.66478611 45.6782771,1.66478611 C45.1872057,1.66478611 45.0803571,1.70741758 44.7603513,2.02796311 L44.3971743,2.39060047 L44.3971743,4.16277473 L44.3971743,5.93494898 L43.5434655,5.93494898 L42.689217,5.93494898 L42.689217,4.16277473 L42.689217,2.39060047 L42.32604,2.02796311 C42.0060341,1.70741758 41.8991856,1.66478611 41.4183673,1.66478611 C40.9699274,1.66478611 40.8204474,1.71821036 40.5322802,1.97453885 L40.179896,2.2842916 L40.1264717,4.56912284 L40.0730475,6.8431613 L39.731456,7.55818289 C39.3153944,8.43347724 38.610626,9.21271586 37.8632261,9.61852433 C37.5534733,9.7787971 37.2760989,9.92827708 37.2545133,9.949323 C37.2334674,9.97090856 37.435832,10.2374902 37.7029533,10.5472429 C39.1227433,12.2233615 40.2867445,14.6895114 40.7135989,16.9527571 C41.4820447,21.0308085 40.393593,25.3543956 37.7455848,28.6532084 L37.0197704,29.5608811 L37.2437206,30.094584 C37.9269035,31.663854 39.0369407,32.8381083 40.510155,33.532084 C41.7712912,34.1289246 43.5218799,34.2784046 44.9524627,33.9157673 Z M13.8120585,21.6600275 C12.5627943,13.4078689 18.8722527,6.39364207 27.1454572,6.82103611 C31.021144,7.02394035 34.4370585,8.80690738 36.7003042,11.8067602 C38.2587814,13.8671016 39.102237,16.2690345 39.2409243,18.9591346 C39.3693583,21.6810734 38.7924843,23.9977433 37.383487,26.3678375 C36.7537284,27.4249902 34.757604,29.4853316 33.6686126,30.211146 L33.6686126,30.211146 L32.9217524,30.7022174 L26.462814,30.7022174 L20.0038756,30.6914246 L19.2780612,30.2219388 C18.3385498,29.5921801 16.8653356,28.1831829 16.1179356,27.1794545 C14.9220958,25.5885989 14.1110184,23.6135204 13.8120585,21.6600275 Z M27.3165228,8.49715463 L25.6091052,8.49715463 L25.6091052,11.0280612 L24.7014325,11.0814855 C22.4489796,11.2309655 20.6875981,12.9389227 20.5165326,15.1487441 L20.5165326,15.1487441 L20.4523155,15.9706142 L22.1921115,15.9706142 L22.1921115,15.4153257 C22.1921115,14.5826629 22.3734301,14.0813383 22.8434557,13.5686813 C23.505053,12.8423273 23.86823,12.7678571 26.4622743,12.7678571 C28.9818485,12.7678571 29.387657,12.8531201 30.0174156,13.4936715 C30.9461342,14.4439757 30.9677198,16.1735184 30.0600471,17.1340757 C29.4405416,17.7848803 29.2376374,17.8275118 26.4088501,17.8917288 L26.4088501,17.8917288 L23.8466444,17.9451531 L23.1316228,18.2867445 C22.1284341,18.7562304 21.4236656,19.450206 20.9325942,20.4431417 C20.5694172,21.1797488 20.5375785,21.318436 20.5375785,22.1618917 C20.5375785,23.0053473 20.5694172,23.1440345 20.9325942,23.8806417 C21.6907869,25.4072802 23.0247743,26.3036205 24.7008929,26.410469 L24.7008929,26.410469 L25.6085655,26.4638932 L25.6085655,27.7239502 L25.6080259,27.7239502 L25.6080259,28.9937206 L27.3165228,28.9937206 L27.3165228,26.4638932 L28.2236558,26.4110086 C30.4761087,26.2615286 32.2374902,24.5535714 32.4085557,22.34375 L32.4085557,22.34375 L32.4727728,21.5218799 L30.7329768,21.5218799 L30.7329768,22.0874215 C30.7329768,22.3971743 30.657967,22.8774529 30.5619113,23.1548273 C30.3590071,23.7527473 29.6434458,24.4467229 29.0671115,24.6069957 C28.511823,24.7564757 24.4019329,24.7564757 23.8466444,24.6069957 C23.2805632,24.4467229 22.4694859,23.635106 22.3092131,23.0695644 C22.0318387,22.0766287 22.2563285,20.9984301 22.8645016,20.3578787 C23.4840071,19.7065345 23.6869113,19.6639031 26.5156986,19.599686 L26.5156986,19.599686 L29.0779042,19.5462618 L29.7929258,19.2046703 C30.7961146,18.7351845 31.500883,18.0412088 31.9919545,17.0482732 C32.3551315,16.311666 32.3869702,16.1729788 32.3869702,15.3403159 C32.3869702,14.528699 32.3443387,14.3365875 32.0453787,13.7068289 C31.3087716,12.1375589 29.931613,11.1872547 28.2344486,11.091199 L28.2344486,11.091199 L27.3165228,11.0269819 L27.3165228,8.49715463 Z" id="Shape" fill="url(#linearGradient-2)"></path>
            </g>
        </g>
    </g>
</svg>