<?xml version="1.0" encoding="UTF-8"?>
<svg width="102px" height="40px" viewBox="0 0 102 40" version="1.1" xmlns="http://www.w3.org/2000/svg" xmlns:xlink="http://www.w3.org/1999/xlink">
    <!-- Generator: Sketch 58 (84663) - https://sketch.com -->
    <title>logoBeon</title>
    <desc>Created with Sketch.</desc>
    <defs>
        <path d="M33.0230003,11.783343 C31.3988589,10.0793555 29.1057042,9.05224479 26.3761182,9.05224479 L26.3761182,9.05224479 C22.7328391,9.05224479 19.8181554,10.8808406 18.2532936,13.7102342 L18.2532936,13.7102342 C16.8886518,10.910178 14.3063576,9.05224479 10.7643984,9.05224479 L10.7643984,9.05224479 C8.12494167,9.05224479 6.19926033,10.1936805 5.23626843,11.4775689 L5.23626843,11.4775689 L5.23626843,1.41998962 L0.171487564,1.41998962 L0.171487564,28.1690252 L4.84399441,28.1690252 L4.84399441,25.8864561 C6.02081648,27.5983073 8.12494167,28.596988 10.7643984,28.596988 L10.7643984,28.596988 C14.3009136,28.596988 16.8807882,26.7444988 18.2472447,23.9513989 L18.2472447,23.9513989 C19.8181554,26.8176911 22.7555227,28.596988 26.4118069,28.596988 L26.4118069,28.596988 C29.0234385,28.596988 31.3041929,27.6391377 32.9467836,26.0479629 L32.9467836,26.0479629 C35.7353469,32.9715843 42.5110716,37.8606434 50.4327687,37.8606434 L50.4327687,37.8606434 C58.6042872,37.8606434 65.5587582,32.6597612 68.1728094,25.388628 L68.1728094,25.388628 L68.1728094,28.6208813 L73.5669553,28.6208813 L73.5669553,17.2237633 C73.5669553,14.5646475 75.0108382,12.8930218 77.6318457,12.8930218 L77.6318457,12.8930218 C80.0257153,12.8930218 81.012903,14.4887333 81.012903,16.8057813 L81.012903,16.8057813 L81.012903,28.6208813 L86.4076537,28.6208813 L86.4076537,16.1981649 C86.4076537,11.4494413 83.8622581,8.25862333 79.0757286,8.25862333 L79.0757286,8.25862333 C76.1123509,8.25862333 74.0608516,9.4360503 73.1492757,11.1454819 L73.1492757,11.1454819 L73.1492757,8.71410882 L68.1728094,8.71410882 L68.1728094,12.6359417 C65.5587582,5.36450604 58.6042872,0.163623937 50.4327687,0.163623937 L50.4327687,0.163623937 C42.5842638,0.163623937 35.8587453,4.96164637 33.0230003,11.783343 M38.9225355,19.0121336 C38.9225355,12.6552983 44.0756309,7.50220288 50.4327687,7.50220288 L50.4327687,7.50220288 C56.7893016,7.50220288 61.9426995,12.6552983 61.9426995,19.0121336 L61.9426995,19.0121336 C61.9426995,25.368969 56.7893016,30.5223669 50.4327687,30.5223669 L50.4327687,30.5223669 C44.0756309,30.5223669 38.9225355,25.368969 38.9225355,19.0121336 M26.3404294,13.1180425 C28.694376,13.1180425 30.2280857,14.544686 30.584671,16.6488112 L30.584671,16.6488112 L22.0964902,16.6488112 C22.5241506,14.5086948 24.0218691,13.1180425 26.3404294,13.1180425 M5.09351335,18.8246164 C5.09351335,15.7931881 6.87674206,13.5103166 9.69434021,13.5103166 L9.69434021,13.5103166 C12.5119384,13.5103166 14.2951671,15.7931881 14.2951671,18.8246164 L14.2951671,18.8246164 C14.2951671,21.8563471 12.5119384,24.1392186 9.69434021,24.1392186 L9.69434021,24.1392186 C6.87674206,24.1392186 5.09351335,21.8563471 5.09351335,18.8246164 M22.0248102,20.2872511 L31.6320457,20.2872511 C31.6752956,20.9387223 31.7518147,21.5808177 31.8600908,22.21263 L31.8600908,22.21263 L30.1564057,22.21263 C29.5503016,23.5681983 28.0879693,24.2456801 26.554562,24.2456801 L26.554562,24.2456801 C24.0218691,24.2456801 22.3816979,22.8547254 22.0248102,20.2872511" id="path-1"></path>
    </defs>
    <g id="Page-1" stroke="none" stroke-width="1" fill="none" fill-rule="evenodd">
        <g id="home-1" transform="translate(-19.000000, -23.000000)">
            <g id="logoBeon" transform="translate(19.000000, 23.000000)">
                <g>
                    <g id="beon">
                        <mask id="mask-2" fill="white">
                            <use xlink:href="#path-1"></use>
                        </mask>
                        <use id="Clip-2" fill="#FFFFFF" xlink:href="#path-1"></use>
                    </g>
                    <g id="claro" transform="translate(73.494670, 29.337379)" fill="#FFFFFF">
                        <path d="M20.8204957,4.68641942 C21.5663305,4.68641942 22.2238507,4.95257295 22.7676508,5.49576813 C23.299353,6.03987065 23.5649016,6.69799576 23.5649016,7.45653335 C23.5649016,8.21567583 23.299353,8.8734985 22.7676508,9.40489823 C22.2238507,9.94869831 21.5663305,10.2263448 20.8204957,10.2263448 C20.0743585,10.2263448 19.4283312,9.94869831 18.8978388,9.40489823 C18.3537363,8.8734985 18.0878852,8.21567583 18.0878852,7.45653335 C18.0878852,6.69799576 18.3537363,6.03987065 18.8978388,5.49576813 C19.4283312,4.95257295 20.0743585,4.68641942 20.8204957,4.68641942 Z M8.74072418,3.33296818 L8.74072418,10.1888414 L7.42598618,10.1888414 L7.42598618,3.33296818 L8.74072418,3.33296818 Z M11.8523917,4.67498691 C12.4218998,4.66167923 12.9272891,4.77479449 13.3827746,5.01554246 C13.7740313,5.22230637 13.9978172,5.60728916 14.035272,6.15072157 L14.0408997,6.31848501 L14.0408997,10.1885994 L12.7249519,10.1885994 L12.7249519,9.64479936 C12.3208825,9.99956993 11.7513744,10.1761991 11.0303402,10.1885994 C10.5875575,10.1761991 10.221294,10.0500786 9.95483798,9.82203342 C9.65208833,9.54408444 9.50056228,9.16421075 9.51235773,8.69662737 C9.50056228,8.02549703 9.74070536,7.55791365 10.2333919,7.266657 C10.4761057,7.1295476 10.7795191,7.02793374 11.1455572,6.96094028 L11.3727105,6.92489166 L12.3837915,6.76096527 C12.5867335,6.67295314 12.6880534,6.53382742 12.6880534,6.35629091 C12.6750481,6.1415534 12.6112318,5.98942246 12.4594033,5.91381066 C12.3081797,5.82489118 12.0928373,5.7737776 11.8145858,5.78708528 C11.4858257,5.7737776 11.2577805,5.86269708 11.1189573,6.03993114 C11.0480636,6.12122895 10.9854934,6.23446518 10.9504482,6.39311205 L10.9296253,6.52082219 L9.61367754,6.52082219 C9.65208833,6.03993114 9.76550603,5.66066235 9.99324878,5.37001058 C10.3474145,4.90121742 10.9671288,4.66167923 11.8523917,4.67498691 Z M17.9616438,4.69918269 L17.9743466,6.03962869 L17.5696722,6.01513047 C17.3165239,6.01513047 17.0763808,6.09043982 16.8483356,6.24287321 C16.6466033,6.38139403 16.4823745,6.54592531 16.3928501,6.74826249 C16.2953757,6.91080626 16.2445646,7.15734394 16.2320364,7.49473217 L16.2289237,7.67102891 L16.2289237,10.1885994 L14.9259812,10.1885994 L14.9259812,4.92662298 L16.1781126,4.93962821 L16.1781126,5.61015366 C16.4062442,5.29543575 16.6710398,5.0742666 16.964881,4.92969507 L17.1141867,4.86371397 L17.6201809,4.72458825 L17.9616438,4.69918269 Z M3.50466746,3.33287745 C4.26380994,3.32077956 4.95943851,3.56152753 5.56584515,4.04211614 C6.09492612,4.45720812 6.46341883,4.98342145 6.68088211,5.61034762 L6.75537,5.85014552 L5.37681565,5.85014552 C5.19958159,5.49597984 4.94643328,5.19292775 4.6306784,4.97758534 C4.27621027,4.75044749 3.90934182,4.63672734 3.50466746,4.63672734 C2.92306149,4.63672734 2.4297701,4.85055751 2.02509574,5.25523187 C1.60802105,5.67321391 1.40538142,6.16650529 1.41778175,6.74841371 C1.40538142,7.33032213 1.60802105,7.82361352 2.02509574,8.24099066 C2.4297701,8.64506013 2.92306149,8.86010009 3.50466746,8.86010009 C3.90934182,8.86010009 4.27621027,8.74698483 4.6306784,8.53103753 C4.89380746,8.34200803 5.11345974,8.10866161 5.28193404,7.83082325 L5.37681565,7.6587798 L6.75537,7.6587798 C6.55303282,8.39251671 6.16106124,8.98743036 5.56584515,9.46801897 C4.95943851,9.93590479 4.26380994,10.1636475 3.50466746,10.1636475 C2.55679792,10.1636475 1.77194743,9.83458498 1.11472966,9.17645986 C0.443296866,8.50653931 0.11514165,7.68388291 0.11514165,6.74841371 C0.11514165,5.79933439 0.443296866,5.00268846 1.11472966,4.3327679 C1.77194743,3.64953967 2.55679792,3.32077956 3.50466746,3.33287745 Z M12.6620429,7.50710252 L12.4088946,7.64653068 L11.7513744,7.81106196 C11.4737278,7.84826297 11.2577805,7.91177688 11.1313576,7.98769113 C10.9166201,8.12681684 10.8153003,8.31614879 10.8153003,8.58230233 C10.8153003,8.82274786 10.8782093,8.98758158 11.0049347,9.10069684 C11.1313576,9.2017142 11.283791,9.25282778 11.4737278,9.25282778 C11.7764775,9.25282778 12.0423286,9.16421075 12.294872,8.98758158 C12.5055265,8.83250178 12.6286508,8.57090385 12.6561405,8.2027878 L12.6620429,8.03850226 L12.6620429,7.50710252 Z M20.8204957,6.00206475 C20.4282217,5.98936197 20.0867588,6.12818523 19.8079025,6.41974434 C19.5296511,6.69799576 19.3775201,7.03945866 19.3775201,7.45653335 C19.3775201,7.84820248 19.5296511,8.19027027 19.8079025,8.48092203 C20.0867588,8.77248113 20.4282217,8.91039706 20.8204957,8.91039706 C21.2248676,8.91039706 21.5663305,8.77248113 21.844582,8.48092203 C22.1222285,8.19027027 22.2616566,7.84820248 22.2746619,7.45653335 C22.2616566,7.03945866 22.1222285,6.69799576 21.8569823,6.41974434 C21.5663305,6.12818523 21.2248676,5.98936197 20.8204957,6.00206475 Z M27.8529678,6.20409948 L27.8529678,7.381224 L24.3742201,7.381224 L24.3742201,6.20409948 L27.8529678,6.20409948 Z M26.1316803,0.879274509 L26.9679468,1.71463368 L23.7922512,4.88911953 L22.9574969,4.05436525 L26.1316803,0.879274509 Z M21.5666027,0.2216938 L21.5666027,3.62422484 L20.390688,3.62422484 L20.390688,0.2216938 L21.5666027,0.2216938 Z" id="Combined-Shape"></path>
                    </g>
                </g>
            </g>
        </g>
    </g>
</svg>