<?xml version="1.0" encoding="UTF-8"?>
<svg width="1149px" height="244px" viewBox="0 0 1149 244" version="1.1" xmlns="http://www.w3.org/2000/svg" xmlns:xlink="http://www.w3.org/1999/xlink">
    <!-- Generator: Sketch 63.1 (92452) - https://sketch.com -->
    <title>logo-hackatagro</title>
    <desc>Created with Sketch.</desc>
    <defs>
        <path d="M171,231.1 L61.4,231.1 C28.1,231.1 0.9,203.9 0.9,170.6 L0.9,61 C0.9,27.7 28.1,0.5 61.4,0.5 L171,0.5 C204.3,0.5 231.5,27.7 231.5,61 L231.5,170.6 C231.4,203.9 204.2,231.1 171,231.1 Z" id="path-1"></path>
        <path d="M171,231.1 L61.4,231.1 C28.1,231.1 0.9,203.9 0.9,170.6 L0.9,61 C0.9,27.7 28.1,0.5 61.4,0.5 L171,0.5 C204.3,0.5 231.5,27.7 231.5,61 L231.5,170.6 C231.4,203.9 204.2,231.1 171,231.1 Z" id="path-3"></path>
        <path d="M171,231.1 L61.4,231.1 C28.1,231.1 0.9,203.9 0.9,170.6 L0.9,61 C0.9,27.7 28.1,0.5 61.4,0.5 L171,0.5 C204.3,0.5 231.5,27.7 231.5,61 L231.5,170.6 C231.4,203.9 204.2,231.1 171,231.1 Z" id="path-5"></path>
    </defs>
    <g id="Page-1" stroke="none" stroke-width="1" fill="none" fill-rule="evenodd">
        <g id="logo-hackatagro">
            <g id="logo" transform="translate(304.900000, 71.900000)" fill="#FFFFFF" fill-rule="nonzero">
                <path d="M620.1,85.1 C621.4,85.1 622.5,85.2 623.5,85.4 C624.5,85.6 625.5,85.9 626.4,86.2 C627.3,86.6 628.2,87 629,87.5 C629.8,88 630.6,88.6 631.4,89.3 L630.4,90.5 C629.7,89.9 629,89.4 628.2,88.9 C627.4,88.4 626.7,88 625.8,87.7 C625,87.4 624.1,87.1 623.1,86.9 C622.1,86.7 621.1,86.6 619.9,86.6 C617.8,86.6 615.8,87 614.1,87.9 C612.4,88.7 610.9,89.9 609.6,91.2 C608.4,92.6 607.4,94.2 606.7,96 C606,97.8 605.7,99.7 605.7,101.7 L605.7,101.8 C605.7,103.9 606,105.8 606.7,107.7 C607.4,109.5 608.3,111.1 609.5,112.5 C610.7,113.9 612.2,115 614,115.8 C615.8,116.6 617.8,117 620.1,117 C621.2,117 622.3,116.9 623.4,116.7 C624.4,116.5 625.4,116.2 626.4,115.8 C627.3,115.4 628.2,115 629,114.5 C629.8,114 630.5,113.5 631.2,112.9 L631.2,103.1 L619.8,103.1 L619.8,101.6 L632.8,101.6 L632.8,113.6 C631.3,115 629.5,116.1 627.4,117.1 C625.2,117.9 622.8,118.4 620.2,118.4 C617.7,118.4 615.4,118 613.4,117.1 C611.4,116.2 609.8,115 608.4,113.5 C607,112 606,110.2 605.3,108.2 C604.6,106.2 604.2,104.1 604.2,101.8 L604.2,101.7 C604.2,99.6 604.6,97.5 605.3,95.5 C606,93.5 607.1,91.7 608.5,90.2 C609.9,88.7 611.5,87.4 613.5,86.5 C615.5,85.6 617.6,85.1 620.1,85.1 Z M183.7,85.1 C185,85.1 186.1,85.2 187.1,85.4 C188.1,85.6 189.1,85.9 190,86.2 C190.9,86.6 191.8,87 192.6,87.5 C193.4,88 194.2,88.6 195,89.3 L194,90.5 C193.3,89.9 192.6,89.4 191.8,88.9 C191,88.4 190.3,88 189.4,87.7 C188.6,87.4 187.7,87.1 186.7,86.9 C185.7,86.7 184.7,86.6 183.5,86.6 C181.4,86.6 179.4,87 177.7,87.9 C176,88.7 174.5,89.9 173.2,91.2 C172,92.6 171,94.2 170.3,96 C169.6,97.8 169.3,99.7 169.3,101.7 L169.3,101.8 C169.3,103.9 169.6,105.8 170.3,107.7 C171,109.5 171.9,111.1 173.1,112.5 C174.3,113.9 175.8,115 177.6,115.8 C179.4,116.6 181.4,117 183.7,117 C184.8,117 185.9,116.9 187,116.7 C188,116.5 189,116.2 190,115.8 C190.9,115.4 191.8,115 192.6,114.5 C193.4,114 194.1,113.5 194.8,112.9 L194.8,103.1 L183.4,103.1 L183.4,101.6 L196.4,101.6 L196.4,113.6 C194.9,115 193.1,116.1 191,117.1 C188.8,117.9 186.4,118.4 183.8,118.4 C181.3,118.4 179,118 177,117.1 C175,116.2 173.4,115 172,113.5 C170.6,112 169.6,110.2 168.9,108.2 C168.2,106.2 167.8,104.1 167.8,101.8 L167.8,101.7 C167.8,99.6 168.2,97.5 168.9,95.5 C169.6,93.5 170.7,91.7 172.1,90.2 C173.5,88.7 175.1,87.4 177.1,86.5 C179.1,85.6 181.2,85.1 183.7,85.1 Z M17.7,84.9 C20.1,84.9 22.3,85.4 24.3,86.3 C26.3,87.2 28,88.4 29.4,90 C30.8,91.5 31.9,93.3 32.6,95.3 C33.3,97.3 33.7,99.4 33.7,101.6 C33.8,101.6 33.8,101.6 33.7,101.7 C33.7,103.9 33.3,106 32.6,108 C31.8,110 30.8,111.8 29.4,113.3 C28,114.8 26.3,116 24.3,117 C22.3,117.9 20.1,118.4 17.7,118.4 C15.3,118.4 13,117.9 11.1,117 C9.1,116.1 7.5,114.9 6,113.3 C4.6,111.8 3.5,110 2.8,108 C2,106 1.7,103.9 1.7,101.7 L1.7,101.6 C1.7,99.4 2.1,97.3 2.8,95.3 C3.6,93.3 4.6,91.6 6,90 C7.4,88.5 9.1,87.3 11.1,86.3 C13.1,85.4 15.3,84.9 17.7,84.9 Z M305.3,84.9 C307.7,84.9 309.9,85.4 311.9,86.3 C313.9,87.2 315.6,88.4 317,90 C318.4,91.5 319.5,93.3 320.2,95.3 C321,97.3 321.3,99.4 321.3,101.6 C321.4,101.6 321.4,101.6 321.3,101.7 C321.3,103.9 320.9,106 320.2,108 C319.4,110 318.4,111.8 317,113.3 C315.6,114.8 313.9,116 311.9,117 C309.9,117.9 307.7,118.4 305.3,118.4 C302.9,118.4 300.6,117.9 298.7,117 C296.7,116.1 295.1,114.9 293.6,113.3 C292.2,111.8 291.1,110 290.4,108 C289.6,106 289.3,103.9 289.3,101.7 L289.3,101.6 C289.3,99.4 289.7,97.3 290.4,95.3 C291.2,93.3 292.2,91.6 293.6,90 C295,88.5 296.7,87.3 298.7,86.3 C300.7,85.4 302.9,84.9 305.3,84.9 Z M414.3,87.9 L414.3,98 L424.3,98 L424.3,107.9 L414.3,107.9 L414.3,118.1 L404,118.1 L404,107.9 L394,107.9 L394,98 L404,98 L404,87.9 L414.3,87.9 Z M244.6,85.7 C246.7,85.7 248.5,86 250,86.5 C251.5,87 252.8,87.8 253.8,88.8 C254.5,89.6 255.1,90.5 255.5,91.5 C255.9,92.5 256.1,93.6 256.1,94.8 L256.1,94.9 C256.1,96.2 255.9,97.5 255.4,98.5 C254.9,99.6 254.2,100.5 253.3,101.3 C252.4,102.1 251.3,102.7 250.1,103.1 C248.9,103.6 247.5,103.9 246,104 L256.7,117.9 L254.7,117.9 L244.2,104.1 L232.9,104.1 L232.9,117.8 L231.3,117.8 L231.3,85.7 L244.6,85.7 Z M773.5,85.4 L788.7,117.8 L787,117.8 L782.6,108.4 L762.7,108.4 L758.3,117.8 L756.7,117.8 L772,85.4 L773.5,85.4 Z M121.2,85.4 L136.4,117.8 L134.7,117.8 L130.3,108.4 L110.4,108.4 L106,117.8 L104.4,117.8 L119.7,85.4 L121.2,85.4 Z M823.1,85.7 L823.1,116.4 L842.5,116.4 L842.5,117.8 L821.6,117.8 L821.6,85.7 L823.1,85.7 Z M727.1,85.7 L727.1,87.1 L715.6,87.1 L715.6,117.8 L714,117.8 L714,87.1 L702.6,87.1 L702.6,85.7 L727.1,85.7 Z M669.6,85.7 L669.6,117.8 L668,117.8 L668,85.7 L669.6,85.7 Z M569.6,85.7 L569.6,117.8 L568,117.8 L568,85.7 L569.6,85.7 Z M516.4,85.7 C518.9,85.7 521.2,86.1 523.3,86.9 C525.4,87.7 527.2,88.9 528.7,90.3 C530.2,91.7 531.4,93.4 532.2,95.4 C533,97.3 533.4,99.4 533.4,101.7 L533.4,101.8 C533.4,104.1 533,106.2 532.2,108.1 C531.4,110 530.2,111.7 528.7,113.2 C527.2,114.6 525.4,115.8 523.3,116.6 C521.2,117.4 518.9,117.8 516.4,117.8 L505.9,117.8 L505.9,85.7 L516.4,85.7 Z M305.2,86.6 C303,86.6 301.1,87 299.3,87.8 C297.5,88.6 296,89.7 294.7,91.1 C293.4,92.5 292.5,94.1 291.8,95.9 C291.1,97.7 290.7,99.7 290.7,101.7 L290.7,101.8 C290.7,103.8 291.1,105.7 291.8,107.6 C292.5,109.4 293.5,111.1 294.8,112.4 C296.1,113.8 297.6,114.9 299.4,115.7 C301.3,116.5 303.2,116.9 305.4,116.9 C307.6,116.9 309.5,116.5 311.3,115.7 C313.1,114.9 314.6,113.8 315.8,112.4 C317.1,111 318,109.4 318.7,107.6 C319.4,105.8 319.8,103.8 319.8,101.8 L319.8,101.7 C319.8,99.7 319.4,97.8 318.7,95.9 C318,94.1 317,92.4 315.7,91.1 C314.4,89.7 312.9,88.6 311.1,87.8 C309.3,87 307.4,86.6 305.2,86.6 Z M17.5,86.6 C15.4,86.6 13.4,87 11.6,87.8 C9.8,88.6 8.3,89.7 7,91.1 C5.7,92.5 4.8,94.1 4.1,95.9 C3.4,97.7 3,99.7 3,101.7 L3,101.8 C3,103.8 3.4,105.7 4.1,107.6 C4.8,109.4 5.8,111.1 7.1,112.4 C8.4,113.8 9.9,114.9 11.7,115.7 C13.6,116.5 15.6,116.9 17.7,116.9 C19.8,116.9 21.8,116.5 23.6,115.7 C25.4,114.9 26.9,113.8 28.1,112.4 C29.4,111 30.3,109.4 31,107.6 C31.7,105.8 32.1,103.8 32.1,101.8 L32.1,101.7 C32.1,99.7 31.7,97.8 31,95.9 C30.3,94.1 29.3,92.4 28,91.1 C26.7,89.7 25.2,88.6 23.4,87.8 C21.6,87 19.7,86.6 17.5,86.6 Z M516.4,87.2 L507.5,87.2 L507.5,116.5 L516.4,116.5 L516.4,116.4 C518.7,116.4 520.8,116 522.7,115.3 C524.6,114.6 526.2,113.5 527.6,112.2 C529,110.9 530,109.3 530.8,107.6 C531.5,105.8 531.9,103.9 531.9,101.9 L531.9,101.8 C531.9,99.8 531.5,97.9 530.8,96.1 C530,94.3 529,92.8 527.6,91.4 C526.3,90.1 524.6,89 522.7,88.3 C520.8,87.5 518.7,87.2 516.4,87.2 Z M772.7,87.3 L763.5,107 L782,107 L772.7,87.3 Z M120.4,87.3 L111.2,107 L129.7,107 L120.4,87.3 Z M244.5,87.1 L232.9,87.1 L232.9,102.7 L244.1,102.7 C245.8,102.7 247.2,102.5 248.5,102.1 C249.8,101.7 250.9,101.2 251.8,100.5 C252.7,99.8 253.4,99 253.8,98 C254.3,97.1 254.5,96 254.5,94.9 L254.5,94.8 C254.5,92.4 253.6,90.5 251.9,89.1 C250.1,87.7 247.7,87.1 244.5,87.1 Z M210.9,0 C223.5,0 231.1,4.2 237.3,10.3 L227.9,21.1 C222.7,16.4 217.5,13.5 210.8,13.5 C199.5,13.5 191.4,22.9 191.4,34.4 L191.4,34.6 C191.4,46.1 199.3,55.6 210.8,55.6 C218.5,55.6 223.1,52.5 228.4,47.8 L237.8,57.3 C230.9,64.6 223.2,69.2 210.3,69.2 C190.6,69.2 176,54 176,34.8 L176,34.6 C176,15.6 190.3,0 210.9,0 Z M628.6,0 C640.7,0 647.9,3.3 654.9,9.2 L645.6,20.4 C640.4,16.1 635.8,13.6 628.1,13.6 C617.4,13.6 608.9,23.1 608.9,34.5 L608.9,34.7 C608.9,46.9 617.3,55.9 629.2,55.9 C634.6,55.9 639.3,54.6 643.1,51.9 L643.1,42.3 L628.3,42.3 L628.3,29.6 L657.4,29.6 L657.4,58.7 C650.4,64.4 641,69.2 628.7,69.2 C607.8,69.2 593.5,54.6 593.5,34.8 L593.5,34.6 C593.5,15.6 608.3,0 628.6,0 Z M808.4,0 C829.1,0 843.9,15.4 843.9,34.4 L843.9,34.6 C843.8,53.6 828.8,69.2 808.2,69.2 C787.5,69.2 772.7,53.8 772.7,34.8 L772.7,34.6 C772.7,15.6 787.7,0 808.4,0 Z M487.6,1.1 L487.6,14.7 L467.2,14.7 L467.2,68.1 L452.5,68.1 L452.5,14.7 L432.1,14.7 L432.1,1.1 L487.6,1.1 Z M719.6,1.1 C735.4,1.1 744.8,9.4 744.8,23.2 L744.8,23.4 C744.8,34.2 739,41 730.5,44.2 L746.9,68.1 L729.6,68.1 L729.6,68 L715.3,46.6 L703.7,46.6 L703.7,68 L689,68 L689,1.1 L719.6,1.1 Z M126.8,0.6 L155.5,68 L140,68 L133.9,53 L105.6,53 L99.5,68 L84.5,68 L113.2,0.6 L126.8,0.6 Z M14.7,1.1 L14.7,27.6 L41.9,27.6 L41.9,1.1 L56.6,1.1 L56.6,68 L41.9,68 L41.9,41.1 L14.7,41.1 L14.7,68 L-7.67386155e-13,68 L-7.67386155e-13,1.1 L14.7,1.1 Z M281.7,1.1 L281.7,30.4 L308.9,1.1 L326.7,1.1 L299.4,29.5 L327.9,68 L310.2,68 L289.4,39.5 L281.7,47.5 L281.7,68 L267,68 L267,1.1 L281.7,1.1 Z M389.1,0.6 L417.8,68 L402.3,68 L396.2,53 L367.9,53 L361.8,68 L346.8,68 L375.5,0.6 L389.1,0.6 Z M544.3,0.6 L573,68 L557.6,68 L551.5,53 L523.1,53 L517,68 L502,68 L530.7,0.6 L544.3,0.6 Z M808.1,13.6 C796.2,13.6 788,23 788,34.5 L788,34.7 C788,46.2 796.4,55.7 808.3,55.7 C820.2,55.7 828.4,46.3 828.4,34.8 L828.4,34.6 C828.4,23.1 820,13.6 808.1,13.6 Z M119.7,18.3 L110.8,40 L128.6,40 L119.7,18.3 Z M382,18.3 L373.1,40 L390.9,40 L382,18.3 Z M537.3,18.3 L528.4,40 L546.2,40 L537.3,18.3 Z M718.3,14.4 L703.7,14.4 L703.7,33.6 L718.6,33.6 C725.8,33.6 729.9,29.8 729.9,24.1 L729.9,24 C729.9,17.7 725.5,14.4 718.3,14.4 Z" id="Combined-Shape"></path>
            </g>
            <path d="M183.9,237.1 L60.4,237.1 C31,237.1 6.9,213 6.9,183.6 L6.9,60.1 C6.9,30.7 31,6.6 60.4,6.6 L183.9,6.6 C213.3,6.6 237.4,30.7 237.4,60.1 L237.4,183.6 C237.4,213 213.4,237.1 183.9,237.1 Z" id="Path" fill="#67C6EB" fill-rule="nonzero"></path>
            <g id="Clipped" transform="translate(6.000000, 6.000000)">
                <mask id="mask-2" fill="white">
                    <use xlink:href="#path-1"></use>
                </mask>
                <g id="svgcid--4v8tm1xv2q6g"></g>
                <g id="Group" mask="url(#mask-2)" fill-rule="nonzero">
                    <g transform="translate(-459.000000, 56.000000)">
                        <path d="M1149.2,155.7 C1149.2,237.77 893.555,304.3 578.2,304.3 C262.845,304.3 7.2,237.77 7.2,155.7 C7.2,73.63 262.845,7.1 578.2,7.1 C893.555,7.1 1149.2,73.63 1149.2,155.7 L1149.2,155.7 Z" id="Path" fill="#6AA743"></path>
                        <path d="M578.2,310.7 C425.2,310.7 281.2,295.2 172.9,267 C119.9,253.2 78.1,237 48.8,219 C17,199.4 0.9,178.1 0.9,155.7 C0.9,133.3 17,112 48.8,92.4 C78.1,74.4 119.8,58.2 172.9,44.4 C281.2,16.2 425.2,0.7 578.2,0.7 C731.2,0.7 875.2,16.2 983.5,44.4 C1036.5,58.2 1078.3,74.4 1107.6,92.4 C1139.4,112 1155.5,133.3 1155.5,155.7 C1155.5,178.1 1139.4,199.4 1107.6,219 C1078.3,237 1036.6,253.2 983.5,267 C875.2,295.2 731.2,310.7 578.2,310.7 Z M578.2,13.4 C501.4,13.4 426.8,17.3 356.7,25 C289,32.5 228.3,43.1 176.1,56.7 C124.3,70.2 83.7,85.8 55.5,103.2 C41.6,111.8 30.9,120.7 23.9,129.6 C17.1,138.2 13.7,147 13.7,155.6 C13.7,164.2 17.1,173 23.9,181.6 C30.9,190.6 41.6,199.4 55.5,208 C83.7,225.4 124.3,241 176.1,254.5 C228.2,268.1 289,278.7 356.7,286.2 C426.9,293.9 501.4,297.8 578.2,297.8 C655,297.8 729.6,293.9 799.7,286.2 C867.4,278.7 928.1,268.1 980.3,254.5 C1032.1,241 1072.7,225.4 1100.9,208 C1114.8,199.4 1125.5,190.5 1132.5,181.6 C1139.3,173 1142.7,164.2 1142.7,155.6 C1142.7,147 1139.3,138.2 1132.5,129.6 C1125.5,120.6 1114.8,111.8 1100.9,103.2 C1072.7,85.8 1032.1,70.2 980.3,56.7 C928.2,43.1 867.4,32.5 799.7,25 C729.6,17.4 655,13.4 578.2,13.4 Z" id="Shape" fill="#053334"></path>
                    </g>
                </g>
            </g>
            <g id="Clipped" transform="translate(6.000000, 6.000000)">
                <mask id="mask-4" fill="white">
                    <use xlink:href="#path-3"></use>
                </mask>
                <g id="svgcid--4v8tm1xv2q6g"></g>
                <g id="Group" mask="url(#mask-4)" fill-rule="nonzero">
                    <g transform="translate(-418.000000, 90.000000)">
                        <path d="M846.3,177.7 C846.3,272.251 658.483,348.9 426.8,348.9 C195.117,348.9 7.3,272.251 7.3,177.7 C7.3,83.149 195.117,6.5 426.8,6.5 C658.483,6.5 846.3,83.149 846.3,177.7 Z" id="Path" fill="#92C14B"></path>
                        <path d="M426.8,355.3 C369.8,355.3 314.5,350.7 262.4,341.8 C212,333.1 166.7,320.6 127.7,304.7 C45.9,271.3 0.9,226.2 0.9,177.8 C0.9,129.4 45.9,84.2 127.7,50.9 C166.7,35 212,22.5 262.4,13.8 C314.5,4.8 369.8,0.3 426.8,0.3 C483.8,0.3 539.1,4.9 591.2,13.8 C641.6,22.5 686.9,35 725.9,50.9 C807.7,84.3 852.7,129.4 852.7,177.8 C852.7,226.2 807.7,271.4 725.9,304.7 C686.9,320.6 641.6,333.1 591.2,341.8 C539.1,350.7 483.8,355.3 426.8,355.3 Z M426.8,12.9 C370.5,12.9 316,17.4 264.6,26.3 C215.1,34.8 170.7,47.1 132.6,62.6 C94.8,78 65.3,95.9 44.7,115.7 C24.1,135.6 13.7,156.4 13.7,177.8 C13.7,199.2 24.1,220 44.7,239.9 C65.2,259.7 94.8,277.6 132.6,293 C170.7,308.5 215.1,320.8 264.6,329.3 C316,338.2 370.5,342.7 426.8,342.7 C483.1,342.7 537.6,338.2 589,329.3 C638.5,320.8 682.9,308.5 721,293 C758.8,277.6 788.3,259.7 808.9,239.9 C829.5,220 839.9,199.2 839.9,177.8 C839.9,156.4 829.5,135.6 808.9,115.7 C788.4,95.9 758.8,78 721,62.6 C682.9,47.1 638.5,34.8 589,26.3 C537.6,17.4 483,12.9 426.8,12.9 Z" id="Shape" fill="#053334"></path>
                    </g>
                </g>
            </g>
            <g id="Clipped" transform="translate(6.000000, 6.000000)">
                <mask id="mask-6" fill="white">
                    <use xlink:href="#path-5"></use>
                </mask>
                <g id="svgcid--4v8tm1xv2q6g"></g>
                <g id="Group" mask="url(#mask-6)" fill-rule="nonzero">
                    <g transform="translate(-295.000000, 150.000000)">
                        <path d="M796.006,133.288 C800.434,214.132 627.351,289.345 409.415,301.282 C191.479,313.218 11.217,257.358 6.789,176.514 C2.361,95.67 175.444,20.457 393.38,8.52 C611.317,-3.416 791.578,52.444 796.006,133.288 Z" id="Path" fill="#BCCE94"></path>
                        <path d="M350.9,309.3 C266.8,309.3 188.6,299.1 126.2,279.8 C47.4,255.4 2.8,218.9 0.5,176.9 C-1.8,135 38.6,93.8 114.2,60.9 C187.9,28.9 286.9,8.1 393,2.2 C499.1,-3.6 599.8,6.3 676.6,30.1 C755.4,54.5 800,91 802.3,133 C804.6,174.9 764.2,216.1 688.6,249 C614.9,281 515.9,301.8 409.8,307.7 C389.9,308.7 370.3,309.3 350.9,309.3 Z M451.8,13.4 C432.7,13.4 413.3,13.9 393.8,15 C340.9,17.9 289.7,24.6 241.8,34.8 C195.6,44.7 154.4,57.4 119.3,72.6 C84.5,87.7 57.6,104.5 39.2,122.5 C21,140.3 12.2,158.4 13.2,176.3 C14.2,194.1 24.8,211.2 44.9,226.9 C65.1,242.8 93.7,256.5 130,267.7 C166.6,279 208.9,287.2 255.9,291.9 C304.6,296.8 356.2,297.9 409.1,295 C462,292.1 513.2,285.4 561.1,275.2 C607.3,265.3 648.5,252.6 683.6,237.4 C718.4,222.3 745.3,205.5 763.7,187.5 C781.9,169.7 790.7,151.6 789.7,133.7 C788.7,115.9 778.1,98.8 758,83.1 C737.8,67.2 709.2,53.5 672.9,42.3 C636.3,31 594,22.8 547,18.1 C516.2,14.9 484.4,13.4 451.8,13.4 Z" id="Shape" fill="#053334"></path>
                    </g>
                </g>
            </g>
            <path d="M194.5,243.5 L49.8,243.5 C22.6,243.5 0.5,221.4 0.5,194.2 L0.5,49.5 C0.5,22.3 22.6,0.2 49.8,0.2 L194.4,0.2 C221.6,0.2 243.700338,22.3 243.700338,49.5 L243.700338,194.1 C243.8,221.3 221.7,243.5 194.5,243.5 Z M49.8,12.9 C29.6,12.9 13.2,29.3 13.2,49.5 L13.2,194.1 C13.2,214.3 29.6,230.7 49.8,230.7 L194.4,230.7 C214.6,230.7 231,214.3 231,194.1 L231,49.5 C231,29.3 214.6,12.9 194.4,12.9 L49.8,12.9 Z" id="Shape" fill="#053334" fill-rule="nonzero"></path>
            <path d="M184.7,113.5 C184.7,122.116 177.716,129.1 169.1,129.1 C160.484,129.1 153.5,122.116 153.5,113.5 C153.5,104.884 160.484,97.9 169.1,97.9 C177.716,97.9 184.7,104.884 184.7,113.5 Z" id="Path" fill="#FFFFFF" fill-rule="nonzero"></path>
            <path d="M169.1,134.8 C157.4,134.8 147.8,125.2 147.8,113.5 C147.8,101.8 157.4,92.2 169.1,92.2 C180.8,92.2 190.4,101.8 190.4,113.5 C190.4,125.2 180.8,134.8 169.1,134.8 L169.1,134.8 Z M169.1,103.7 C163.7,103.7 159.3,108.1 159.3,113.5 C159.3,118.9 163.7,123.3 169.1,123.3 C174.5,123.3 178.9,118.9 178.9,113.5 C178.9,108.1 174.5,103.7 169.1,103.7 Z" id="Shape" fill="#053334" fill-rule="nonzero"></path>
            <path d="M69,69.2 C69,77.816 62.016,84.8 53.4,84.8 C44.784,84.8 37.8,77.816 37.8,69.2 C37.8,60.584 44.784,53.6 53.4,53.6 C62.016,53.6 69,60.584 69,69.2 Z" id="Path" fill="#FFFFFF" fill-rule="nonzero"></path>
            <path d="M53.4,90.5 C41.7,90.5 32.1,80.9 32.1,69.2 C32.1,57.5 41.7,47.9 53.4,47.9 C65.1,47.9 74.7,57.5 74.7,69.2 C74.7,80.9 65.2,90.5 53.4,90.5 L53.4,90.5 Z M53.4,59.4 C48,59.4 43.6,63.8 43.6,69.2 C43.6,74.6 48,79 53.4,79 C58.8,79 63.2,74.6 63.2,69.2 C63.3,63.8 58.8,59.4 53.4,59.4 L53.4,59.4 Z" id="Shape" fill="#053334" fill-rule="nonzero"></path>
            <path d="M105.9,165.1 C105.9,173.716 98.916,180.7 90.3,180.7 C81.684,180.7 74.7,173.716 74.7,165.1 C74.7,156.484 81.684,149.5 90.3,149.5 C98.916,149.5 105.9,156.484 105.9,165.1 Z" id="Path" fill="#FFFFFF" fill-rule="nonzero"></path>
            <path d="M90.3,186.4 C78.6,186.4 69,176.8 69,165.1 C69,153.4 78.6,143.8 90.3,143.8 C102,143.8 111.6,153.4 111.6,165.1 C111.6,176.8 102,186.4 90.3,186.4 Z M90.3,155.3 C84.9,155.3 80.5,159.7 80.5,165.1 C80.5,170.5 84.9,174.9 90.3,174.9 C95.7,174.9 100.1,170.5 100.1,165.1 C100.1,159.7 95.7,155.3 90.3,155.3 Z" id="Shape" fill="#053334" fill-rule="nonzero"></path>
        </g>
    </g>
</svg>