<?xml version="1.0" encoding="UTF-8"?>
<svg width="55px" height="61px" viewBox="0 0 55 61" version="1.1" xmlns="http://www.w3.org/2000/svg" xmlns:xlink="http://www.w3.org/1999/xlink">
    <!-- Generator: Sketch 63.1 (92452) - https://sketch.com -->
    <title>special_3</title>
    <desc>Created with Sketch.</desc>
    <g id="Foundation:-niceverynice.com" stroke="none" stroke-width="1" fill="none" fill-rule="evenodd">
        <g id="Artboard" transform="translate(-1286.000000, -2328.000000)" fill="#E32620">
            <g id="special_3" transform="translate(1286.000000, 2328.000000)">
                <path d="M27.2743135,60.5458333 C26.4142053,60.5458333 25.557122,60.2937431 24.7958304,59.8188182 L1.45291642,45.2090782 C0.586758187,44.6665949 0.0493165816,43.577595 0.0503234985,42.3655785 C0.0503234985,41.1555786 0.587766521,40.0675871 1.45291642,39.5261122 L6.55709918,36.3317125 L1.45291642,33.1373129 C0.587766521,32.5948296 0.0503234985,31.5058297 0.0503234985,30.2958299 C0.0503234985,29.08583 0.586758187,27.9968301 1.45190809,27.4553552 L6.55709918,24.2599472 L1.45190809,21.0645392 C0.587766521,20.5230643 0.0503234985,19.4340644 0.0503234985,18.2240646 C0.0503234985,17.0130564 0.587766521,15.9250648 1.45190809,15.3835899 L24.7948221,0.773849873 C25.5561137,0.297916593 26.4142053,0.0458332884 27.2743135,0.0458332884 C28.1354301,0.0458332884 28.9925133,0.297916593 29.7538049,0.773849873 L53.0967189,15.3825816 C53.9618688,15.9250648 54.4993104,17.0130564 54.4993104,18.2240646 C54.4993104,19.4169228 53.9769938,20.4928143 53.1330189,21.0413476 L53.0493272,21.0746226 L53.0180689,21.1139476 L47.9915278,24.2599472 L53.0967189,27.4553552 C53.9618688,27.9968301 54.4993104,29.08583 54.4993104,30.2958299 C54.4993104,31.5058297 53.9618688,32.5948296 53.0967189,33.1373129 L47.9915278,36.3317125 L53.0967189,39.5271205 C53.9618688,40.0675871 54.4993104,41.1555786 54.4993104,42.3665868 C54.4993104,43.577595 53.9618688,44.6665949 53.0967189,45.2090782 L29.7538049,59.8188182 C28.9925133,60.2937431 28.1354301,60.5458333 27.2743135,60.5458333 Z M2.10934135,41.1707036 C1.73928306,41.4016119 1.51845808,41.8493119 1.51845808,42.3665868 C1.51845808,42.8848701 1.73928306,43.3325701 2.10934135,43.5644867 L25.4522554,58.1742267 C26.0118803,58.5241183 26.6420886,58.7096516 27.2743135,58.7096516 C27.9065384,58.7096516 28.5367467,58.5241183 29.09738,58.1742267 L52.440294,43.5644867 C52.8103523,43.3325701 53.0311773,42.8848701 53.0311773,42.3665868 C53.0311773,41.8493119 52.8103523,41.4026203 52.440294,41.1707036 L46.3499613,37.3592041 L29.7538049,47.7460446 C28.9925133,48.2219778 28.1354301,48.4740611 27.2743135,48.4740611 C26.4142053,48.4740611 25.557122,48.2219778 24.7958304,47.7460446 L8.19967399,37.3592041 L2.10934135,41.1707036 Z M2.10934135,29.0989383 C1.73928306,29.330855 1.51845808,29.7785549 1.51845808,30.2958299 C1.51845808,30.8131048 1.73928306,31.2608048 2.10934135,31.4927214 L25.4522554,46.1014531 C26.0118803,46.452353 26.6420886,46.6378863 27.2743135,46.6378863 C27.9065384,46.6378863 28.5367467,46.452353 29.09738,46.1014531 L52.440294,31.4927214 C52.8103523,31.2608048 53.0311773,30.8131048 53.0311773,30.2958299 C53.0311773,29.7785549 52.8103523,29.330855 52.440294,29.0989383 L46.3499613,25.2874388 L29.7538049,35.6742793 C28.9925133,36.1502125 28.1354301,36.4022958 27.2743135,36.4022958 C26.4131969,36.4022958 25.5561137,36.1502125 24.7958304,35.6742793 L8.19967399,25.2874388 L2.10934135,29.0989383 Z M27.2753218,1.88200808 C26.6420886,1.88200808 26.0118803,2.06754139 25.451247,2.41743302 L2.10934135,17.027173 C1.73928306,17.2590897 1.51845808,17.7067896 1.51845808,18.2240646 C1.51845808,18.7413395 1.73928306,19.1890395 2.10934135,19.4209561 L25.4522554,34.0306961 C26.0128886,34.3805877 26.6430969,34.566121 27.2743135,34.566121 C27.9065384,34.566121 28.5367467,34.3805877 29.09738,34.0306961 L52.4392857,19.4209561 C52.8103523,19.1890395 53.0311773,18.7413395 53.0311773,18.2240646 C53.0311773,17.7057813 52.8103523,17.2590897 52.440294,17.027173 L29.09738,2.41743302 C28.5367467,2.06754139 27.9065384,1.88200808 27.2753218,1.88200808 Z" id="Shape"></path>
            </g>
        </g>
    </g>
</svg>