<?xml version="1.0" encoding="UTF-8"?>
<svg width="70px" height="70px" viewBox="0 0 70 70" version="1.1" xmlns="http://www.w3.org/2000/svg" xmlns:xlink="http://www.w3.org/1999/xlink">
    <!-- Generator: Sketch 63.1 (92452) - https://sketch.com -->
    <title>special_1</title>
    <desc>Created with Sketch.</desc>
    <g id="Foundation:-niceverynice.com" stroke="none" stroke-width="1" fill="none" fill-rule="evenodd">
        <g id="Artboard" transform="translate(-2429.000000, -2489.000000)" fill="#E32620">
            <g id="special_1" transform="translate(2429.000000, 2489.000000)">
                <path d="M68.7746039,36.1588194 L61.7863694,36.1588194 C61.1434518,36.1588194 60.6216636,35.6370312 60.6216636,34.9941136 C60.6216636,34.3511961 61.1434518,33.8294079 61.7863694,33.8294079 L68.7746039,33.8294079 C69.4175215,33.8294079 69.9393096,34.3511961 69.9393096,34.9941136 C69.9393096,35.6370312 69.4175215,36.1588194 68.7746039,36.1588194 Z M58.8815932,60.0422755 C58.5834286,60.0422755 58.2864286,59.9281343 58.059311,59.7010167 L53.1174645,54.7603349 C52.6620645,54.304935 52.6620645,53.5688409 53.1174645,53.113441 C53.5728644,52.6580411 54.3101232,52.6580411 54.7643584,53.113441 L59.7062049,58.0541228 C60.1604402,58.5095227 60.1604402,59.2456168 59.7062049,59.7010167 C59.4790873,59.9281343 59.1797579,60.0422755 58.8815932,60.0422755 Z M54.7643584,16.8747863 C54.5372408,17.1030686 54.2390761,17.2160451 53.9409114,17.2160451 C53.6427468,17.2160451 53.3445821,17.1019039 53.1174645,16.8747863 C52.6620645,16.4193863 52.6620645,15.6832923 53.1174645,15.2278923 L58.059311,10.2872106 C58.5135462,9.83181061 59.2496403,9.83181061 59.7062049,10.2872106 C60.1604402,10.7426105 60.1604402,11.4787045 59.7062049,11.9341045 L54.7643584,16.8747863 Z M34.9981371,58.2882287 C22.1537621,58.2882287 11.7040221,47.8384887 11.7040221,34.9941136 C11.7040221,22.1485739 22.1537621,11.6999986 34.9981371,11.6999986 C47.8436768,11.6999986 58.2934168,22.1485739 58.2934168,34.9941136 C58.2934168,47.8384887 47.8436768,58.2882287 34.9981371,58.2882287 Z M34.9981371,14.0294101 C23.4395973,14.0294101 14.0334336,23.4344091 14.0334336,34.9941136 C14.0334336,46.5538182 23.4395973,55.9588171 34.9981371,55.9588171 C46.5578417,55.9588171 55.9628406,46.5538182 55.9628406,34.9941136 C55.9628406,23.4344091 46.5578417,14.0294101 34.9981371,14.0294101 Z M30.0551259,52.0617117 C29.8280083,52.3249352 29.5053848,52.4646999 29.1746084,52.4646999 C28.9952437,52.4646999 28.8147143,52.4239352 28.6469967,52.3389117 C28.170632,52.0966529 27.921385,51.5597235 28.0413497,51.0379354 L31.2046905,37.3235251 L25.6804911,37.3235251 C25.2239265,37.3235251 24.8104559,37.0568075 24.6206089,36.643337 C24.4307618,36.2287017 24.5006442,35.7418547 24.7999736,35.3971018 L39.9411483,17.9265156 C40.2917248,17.521198 40.8729129,17.4082215 41.3492776,17.6504803 C41.8268069,17.8927391 42.0783834,18.4296685 41.9560893,18.9514566 L38.7915838,32.6647021 L44.3157831,32.6647021 C44.7735125,32.6647021 45.1858183,32.9314198 45.3756654,33.3448903 C45.5655124,33.7595255 45.4956301,34.2463725 45.1963007,34.5911255 L30.0551259,52.0617117 Z M37.3275486,34.9941136 C36.9723134,34.9941136 36.6368781,34.8322195 36.4167487,34.5550196 C36.1954546,34.2778196 36.1139252,33.9144314 36.1919605,33.5673491 L38.6331838,22.9918209 L28.2311967,34.9941136 L32.6687256,34.9941136 C33.0239609,34.9941136 33.3593961,35.1560077 33.5795255,35.4332077 C33.8008196,35.7104077 33.882349,36.0737959 33.803149,36.4208782 L31.3630905,46.9964064 L41.7650775,34.9941136 L37.3275486,34.9941136 Z M34.9981371,9.37058713 C34.3552195,9.37058713 33.8334314,8.84879895 33.8334314,8.20588138 L33.8334314,1.21764688 C33.8334314,0.574729301 34.3552195,0.0529411246 34.9981371,0.0529411246 C35.6410547,0.0529411246 36.1640076,0.574729301 36.1640076,1.21764688 L36.1640076,8.20588138 C36.1640076,8.84879895 35.6410547,9.37058713 34.9981371,9.37058713 Z M16.0565275,17.2160451 C15.7583628,17.2160451 15.4601982,17.1019039 15.2330805,16.8747863 L10.291234,11.9341045 C9.83583409,11.4787045 9.83583409,10.7426105 10.291234,10.2872106 C10.7454693,9.83181061 11.482728,9.83181061 11.938128,10.2872106 L16.8799745,15.2278923 C17.3365391,15.6832923 17.3365391,16.4193863 16.8799745,16.8747863 C16.6528568,17.1030686 16.3535275,17.2160451 16.0565275,17.2160451 Z M8.20990486,36.1588194 L1.22283506,36.1588194 C0.578752784,36.1588194 0.0569646076,35.6370312 0.0569646076,34.9941136 C0.0569646076,34.3511961 0.578752784,33.8294079 1.22283506,33.8294079 L8.20990486,33.8294079 C8.85398714,33.8294079 9.37461061,34.3511961 9.37461061,34.9941136 C9.37461061,35.6370312 8.85398714,36.1588194 8.20990486,36.1588194 Z M15.2330805,53.113441 C15.6884805,52.6580411 16.4257392,52.6580411 16.8799745,53.113441 C17.3365391,53.5688409 17.3365391,54.304935 16.8799745,54.7603349 L11.938128,59.7010167 C11.7110103,59.9281343 11.4128457,60.0422755 11.114681,60.0422755 C10.8165163,60.0422755 10.5183517,59.9281343 10.291234,59.7010167 C9.83583409,59.2456168 9.83583409,58.5095227 10.291234,58.0541228 L15.2330805,53.113441 Z M34.9981371,60.6176402 C35.6410547,60.6176402 36.1640076,61.1394283 36.1640076,61.7823459 L36.1640076,68.7705804 C36.1640076,69.413498 35.6410547,69.9352862 34.9981371,69.9352862 C34.3552195,69.9352862 33.8334314,69.413498 33.8334314,68.7705804 L33.8334314,61.7823459 C33.8334314,61.1394283 34.3552195,60.6176402 34.9981371,60.6176402 Z" id="Shape"></path>
            </g>
        </g>
    </g>
</svg>