<?xml version="1.0" encoding="UTF-8"?>
<svg width="55px" height="56px" viewBox="0 0 55 56" version="1.1" xmlns="http://www.w3.org/2000/svg" xmlns:xlink="http://www.w3.org/1999/xlink">
    <!-- Generator: Sketch 63.1 (92452) - https://sketch.com -->
    <title>special_4</title>
    <desc>Created with Sketch.</desc>
    <g id="Foundation:-niceverynice.com" stroke="none" stroke-width="1" fill="none" fill-rule="evenodd">
        <g id="Artboard" transform="translate(-1935.000000, -2324.000000)" fill="#E32620">
            <g id="special_4" transform="translate(1935.000000, 2324.000000)">
                <g id="Group" transform="translate(27.500000, 27.947320) scale(-1, 1) rotate(-180.000000) translate(-27.500000, -27.947320) translate(0.000000, 0.447320)">
                    <path d="M19.5844135,47.6424217 C18.9866725,47.4543684 18.0010715,46.4021651 17.8242118,45.7602092 C17.6025775,44.9850487 17.7245883,42.1284287 18.0122652,41.0101829 C18.299942,39.9473456 18.8758554,38.6852614 19.4629625,37.8434988 C19.717618,37.4892196 19.9168651,37.1679619 19.9168651,37.1349406 C19.9168651,37.0907257 19.761833,37.0241235 19.5625859,36.9911022 C19.3409517,36.9356936 18.9760386,36.6698443 18.5881785,36.282544 C17.5253413,35.2197067 17.4257178,34.1344822 18.2669208,33.0386236 C18.4437805,32.8169893 18.5881785,32.5959146 18.5769848,32.5405061 C18.5769848,32.4408826 17.9238353,31.9091842 17.8796203,31.9645927 C17.8684268,31.98698 17.6467924,32.3630867 17.3921368,32.8063554 C16.2515037,34.7439766 14.3474634,36.2053078 12.0885845,36.8478234 C11.4242413,37.0358768 10.9373174,37.0912853 9.95171633,37.0912853 C8.43497648,37.0912853 7.65981608,36.903232 6.24269973,36.2165014 C4.55973415,35.3971261 3.20922003,34.1014609 2.37865105,32.5074849 C1.68128653,31.1787984 0.839523902,28.1117377 0.44102989,25.4985796 C0.0201485737,22.7746044 -0.0240663518,21.1912623 0.00895492161,11.5809524 L0.041976195,2.3355555 L0.307825431,1.83743798 C1.30406046,-0.0777958815 3.57413309,-0.587666731 5.05785166,0.763407068 L5.3013136,0.985041377 L5.55596918,0.763407068 C6.64119374,-0.232827962 8.39076156,-0.232827962 9.48662009,0.763407068 L9.73008202,0.985041377 L9.9847376,0.763407068 C10.8483278,-0.033580956 12.1994016,-0.222193992 13.218024,0.309504479 C13.8823673,0.652589912 14.3692911,1.16190108 14.7241298,1.83743798 C14.9675918,2.30253422 14.9899791,2.50178123 15.0453877,4.71644527 C15.1119899,7.37381827 15.1338175,7.47344177 15.9201715,8.18199994 C16.3298592,8.55866634 16.8167831,8.75791334 17.4811263,8.82395589 C17.6691797,8.84634319 18.0016312,8.68011745 18.53277,8.28162344 C22.7953127,5.13732659 28.1212523,4.42876842 32.9378807,6.36638959 C34.1557501,6.8645071 35.3624258,7.540044 36.3810481,8.30401075 C37.1892297,8.91294542 37.2776596,8.93533273 38.1966584,8.63646222 C38.7501845,8.45904283 39.4145278,7.85010816 39.6361622,7.31896937 C39.7357856,7.10852871 39.8023878,6.14531496 39.8466028,4.66159638 C39.9020114,2.50234091 39.9243986,2.30309391 40.1678605,1.83799766 C41.1534616,-0.0772361989 43.4341683,-0.587107048 44.9178869,0.76396675 L45.1613487,0.98560106 L45.4160043,0.76396675 C45.5486491,0.641955944 45.8811006,0.420881316 46.1575838,0.277042888 C47.1207975,-0.221074627 48.493699,-0.011193652 49.3460956,0.76396675 L49.5895575,0.98560106 L49.8442131,0.76396675 C50.7078033,-0.0330212734 52.0588771,-0.22163431 53.0774995,0.310064161 C53.7306491,0.653149595 54.2293263,1.15126711 54.5830457,1.83799766 L54.8488949,2.33611517 L54.8488949,12.4115214 C54.8488949,22.9413898 54.8377012,23.3398839 54.3395838,26.1410952 C53.9075088,28.6658234 53.1547356,31.2896155 52.5127797,32.5074849 C50.8410078,35.7295775 47.0211741,37.6448114 43.5556194,37.0140492 C41.6957941,36.6821574 40.2008818,35.8846096 38.8498081,34.5117082 C38.0746476,33.7253542 37.222251,32.5410658 37.0448317,32.020561 C37.0006167,31.8985501 36.3250798,32.3860337 36.3138862,32.5410658 C36.3026926,32.5964744 36.446531,32.8181087 36.6239503,33.0391833 C37.4651533,34.1356015 37.3655298,35.2202664 36.3026926,36.2831036 C35.9153921,36.6704041 35.5499194,36.9362533 35.3282851,36.9916618 C35.1290381,37.0246831 34.9740061,37.0912853 34.9740061,37.1243066 C34.9740061,37.1573278 35.1956404,37.5228007 35.4721236,37.9324882 C36.6457779,39.6926901 37.0772933,41.121 37.1550892,43.5461047 C37.2323253,45.7159942 37.1438955,46.0702733 36.3133265,46.9008423 C35.1284784,48.0856903 33.9329964,48.0856903 32.759342,46.9008423 C32.12802,46.280714 31.8733645,45.7383815 31.8733645,45.0298234 C31.8733645,44.5428995 31.5409129,44.2434693 30.9873868,44.2434693 C30.4338608,44.2434693 30.1014093,44.5423398 30.1014093,45.0298234 C30.1014093,45.7383815 29.8467538,46.280714 29.2154318,46.9008423 C28.0417773,48.0856903 26.8462953,48.0856903 25.6720812,46.9008423 C25.0407593,46.280714 24.7861037,45.7383815 24.7861037,45.0298234 C24.7861037,44.5428995 24.4536522,44.2434693 23.9001261,44.2434693 C23.3466,44.2434693 23.0141485,44.5423398 23.0141485,45.0298234 C23.0141485,45.7383815 22.759493,46.280714 22.128171,46.9008423 C21.3115941,47.7308515 20.558821,47.9524859 19.5844135,47.6424217 Z M21.0233575,45.7932305 C21.1453683,45.6712196 21.2449918,45.4277576 21.2449918,45.2285107 C21.2449918,44.5199525 21.4996475,43.9776201 22.1309694,43.3574917 C23.016947,42.4608803 23.8251286,42.2616332 24.7883424,42.7043421 C25.7627498,43.1470511 26.5597378,44.2434693 26.5597378,45.1624681 C26.5597378,45.7159942 26.869802,46.0148647 27.4457154,46.0148647 C27.9992415,46.0148647 28.3316929,45.7159942 28.3316929,45.2285107 C28.3316929,44.5199525 28.5863485,43.9776201 29.2176705,43.3574917 C30.3913249,42.1726437 31.5873667,42.1726437 32.761021,43.3574917 C33.392343,43.9776201 33.6469986,44.5199525 33.6469986,45.2285107 C33.6469986,45.7154345 33.9788904,46.0148647 34.5329762,46.0148647 C34.8318467,46.0148647 35.053481,45.9376285 35.2085131,45.7825964 C35.4301474,45.5609621 35.4413411,45.4725322 35.3965664,43.6457283 C35.3523515,41.9297414 35.3193302,41.6638922 35.0310936,40.8221296 C34.6437933,39.6926901 34.0678799,38.7624976 33.1707087,37.8546924 L32.4946121,37.1573278 L27.4345217,37.1573278 L22.385625,37.1573278 L21.6770668,37.910101 C20.7910893,38.8179061 20.2487568,39.7038837 19.8502628,40.8663444 C19.5732199,41.6633325 19.5401987,41.9403753 19.4959837,43.6457283 C19.4517688,45.4613387 19.4629625,45.5609621 19.6840371,45.7825964 C19.9941012,46.0926606 20.7138531,46.1032945 21.0233575,45.7932305 Z M11.5238647,35.2197067 C13.5499158,34.7988254 15.3879134,33.226677 16.2626974,31.2118196 L16.5061593,30.6359062 L15.9196119,29.9385417 C14.3032486,28.0009205 13.1514217,25.5763755 12.6421106,23.018626 C12.387455,21.6899395 12.387455,18.9665239 12.6421106,17.6484715 C13.1295941,15.1903455 14.3138825,12.6880046 15.7864074,10.9389964 C16.0634503,10.6177386 16.2738909,10.3412554 16.2515037,10.3188681 C16.2291164,10.2970405 15.9414395,10.1414487 15.6201817,9.97578268 C14.8450213,9.55490137 14.1146355,8.74671969 13.6825606,7.83891451 L13.3282814,7.09733506 L13.2728729,4.73883258 L13.2174643,2.36913645 L12.8519916,2.04787863 C12.553121,1.7820294 12.3980889,1.72662083 11.9329928,1.72662083 C11.4348752,1.72662083 11.324058,1.77083575 10.9916066,2.10328722 L10.6149402,2.47939392 L10.6149402,4.31739159 L10.6149402,6.15538925 L9.72896265,6.15538925 L8.84298509,6.15538925 L8.84298509,4.31739159 L8.84298509,2.47939392 L8.46687839,2.10328722 C8.13442692,1.77083575 8.02416945,1.72662083 7.51485829,1.72662083 C7.00554712,1.72662083 6.89472996,1.77083575 6.56283818,2.10328722 L6.18617179,2.47939392 L6.18617179,4.31739159 L6.18617179,6.15538925 L5.30019423,6.15538925 L4.41533604,6.15538925 L4.41533604,4.31739159 L4.41533604,2.47939392 L4.03922934,2.10328722 C3.70677787,1.77083575 3.59652039,1.72662083 3.08720922,1.72662083 C2.57789806,1.72662083 2.4670809,1.77083575 2.12399547,2.11392119 L1.74732908,2.49058757 L1.791544,12.8760579 C1.82456528,22.9626577 1.83575893,23.3057432 2.06802722,24.8118491 C2.5219298,27.6354478 3.33011148,30.6135189 4.00564837,31.8979905 C4.48193827,32.8169893 5.83245239,34.1568694 6.72962359,34.5995784 C8.17976121,35.3411578 9.92932902,35.5627921 11.5238647,35.2197067 Z M35.1956404,35.1642981 C35.3394788,35.0204597 35.4172747,34.7988254 35.4172747,34.4999549 C35.4172747,34.2010844 35.3400385,33.9794501 35.1956404,33.8356117 C34.9740061,33.6139773 34.8301676,33.6139773 27.4451557,33.6139773 C20.0601438,33.6139773 19.9163053,33.6139773 19.694671,33.8356117 C19.5508326,33.9794501 19.4730368,34.2010844 19.4730368,34.4999549 C19.4730368,34.7988254 19.5508326,35.0204597 19.694671,35.1642981 C19.9163053,35.3859324 20.0601438,35.3859324 27.4451557,35.3859324 C34.8301676,35.3859324 34.9745657,35.3859324 35.1956404,35.1642981 Z M46.6221203,35.1754918 C47.0872166,35.053481 47.7733874,34.7988254 48.1612475,34.5995784 C49.0584187,34.1568694 50.4089328,32.8169893 50.8852227,31.8979905 C51.7818342,30.1708099 52.7232204,26.2177718 53.0220909,22.8742279 C53.0886931,22.1214548 53.132908,17.7033204 53.132908,12.0454889 L53.132908,2.47939392 L52.7562416,2.10328722 C52.4243498,1.77083575 52.3135327,1.72662083 51.8042216,1.72662083 C51.2949104,1.72662083 51.1840933,1.77083575 50.8522015,2.10328722 L50.4755351,2.47939392 L50.4755351,4.31739159 L50.4755351,6.15538925 L49.5895575,6.15538925 L48.7035799,6.15538925 L48.7035799,4.31739159 L48.7035799,2.47939392 L48.3269135,2.10328722 C47.9950217,1.77083575 47.8842046,1.72662083 47.3748935,1.72662083 C46.8655823,1.72662083 46.7547651,1.77083575 46.4228734,2.10328722 L46.046207,2.47939392 L46.046207,4.31739159 L46.046207,6.15538925 L45.1607891,6.15538925 L44.2748115,6.15538925 L44.2748115,4.31739159 L44.2748115,2.47939392 L43.8981451,2.10328722 C43.5662533,1.77083575 43.4554361,1.72662083 42.9567589,1.72662083 C42.4916628,1.72662083 42.3366307,1.7820294 42.0377601,2.04787863 L41.6722874,2.36913645 L41.6168788,4.73883258 L41.5614703,7.09733506 L41.2071911,7.83891451 C40.7756759,8.74671969 40.0447304,9.55490137 39.2695701,9.97578268 C38.9483122,10.1420084 38.6606353,10.2970405 38.638248,10.3188681 C38.6164204,10.3412554 38.8263014,10.6177386 39.1033443,10.9389964 C40.5758692,12.6773706 41.7831046,15.2351201 42.2258135,17.5824289 C43.0228015,21.8119503 41.8939217,26.2961273 39.1475592,29.7174671 L38.3947861,30.6588532 L38.6270544,31.2123793 C39.3356126,32.8399363 40.4868796,34.0578056 42.0148131,34.7775575 C43.3227914,35.3965664 45.1384018,35.5515985 46.6221203,35.1754918 Z M37.0112508,49.6908601 C37.9302496,49.967903 38.9600655,51.2965894 38.9600655,52.2150286 C38.9600655,53.1340274 37.9302496,54.4627139 37.0112508,54.7391971 C36.3916821,54.9166165 18.3883718,54.9059826 17.8124585,54.7285631 C17.2589324,54.5511438 16.2291164,53.4883064 16.0628907,52.9235868 C15.7752138,51.9491794 15.9850948,51.2736425 16.8156637,50.4436331 C17.2141577,50.0339454 17.5796305,49.7792899 17.878501,49.6908601 C18.5316506,49.5028067 36.3575414,49.5028067 37.0112508,49.6908601 Z M29.9968302,51.3292927 L24.8945846,51.3292927 C18.2587664,51.3313996 18.1221522,51.3518663 17.9238353,51.5506854 C17.7799969,51.6945238 17.702201,51.9161581 17.702201,52.2150286 C17.702201,52.5138991 17.7799969,52.7355334 17.9238353,52.8793718 C18.1161356,53.0716722 18.2498703,53.0971237 24.262635,53.1004923 L30.6287958,53.1004923 C36.6415604,53.0971237 36.7752951,53.0716722 36.9675954,52.8793718 C37.1114339,52.7355334 37.1892297,52.5138991 37.1892297,52.2150286 C37.1892297,51.9161581 37.1119936,51.6945238 36.9675954,51.5506854 C36.7687764,51.3518663 36.6325609,51.3313996 29.9968302,51.3292927 Z M14.3250762,22.4645403 C13.0294109,13.9058739 19.5732199,6.63111945 28.1537139,7.07438808 C32.1733543,7.28482874 35.7161452,9.13402005 38.063454,12.2452956 C39.6798174,14.3821637 40.5546012,16.873311 40.6984397,19.6633288 C40.8316441,22.4863679 40.2333434,24.8890852 38.7720121,27.3472112 C38.1188626,28.4436295 36.0485966,30.5804976 34.9191571,31.3332707 L34.9191571,31.3332707 L34.1445565,31.8425819 L27.4457154,31.8425819 L20.7468743,31.8313882 L19.9941012,31.3444644 C19.0196938,30.6913147 17.4917604,29.2299835 16.7165999,28.1889739 C15.4763433,26.5390296 14.6351403,24.4905912 14.3250762,22.4645403 Z M28.3311333,8.81276223 L26.5602975,8.81276223 L26.5602975,11.4376736 L25.6189114,11.4930822 C23.2827962,11.6481143 21.4559922,13.4195097 21.2785728,15.71141 L21.2785728,15.71141 L21.2119705,16.5638066 L23.0163873,16.5638066 L23.0163873,15.9878931 C23.0163873,15.124303 23.2044406,14.6043578 23.6919242,14.0726593 C24.3780951,13.3193265 24.7547615,13.2420903 27.4451557,13.2420903 C30.0583138,13.2420903 30.4791951,13.3305202 31.1323447,13.9948634 C32.0955584,14.9804645 32.1179458,16.7742472 31.1765596,17.7704822 C30.534044,18.4454595 30.3236034,18.4896744 27.3897471,18.5562766 L27.3897471,18.5562766 L24.7323741,18.6116853 L23.9907946,18.9659643 C22.9503448,19.4528882 22.2193992,20.1726399 21.7100881,21.202456 C21.3334217,21.9664227 21.3004004,22.1102611 21.3004004,22.9850451 C21.3004004,23.8598289 21.3334217,24.0036674 21.7100881,24.7676342 C22.4964422,26.3509762 23.8799775,27.280609 25.6183517,27.3914262 L25.6183517,27.3914262 L26.5597378,27.4468347 L26.5597378,28.7536937 L26.5591781,28.7536937 L26.5591781,30.0706268 L28.3311333,30.0706268 L28.3311333,27.4468347 L29.2719597,27.3919858 C31.6080749,27.2369537 33.4348789,25.4655583 33.6122983,23.1736581 L33.6122983,23.1736581 L33.6789005,22.3212615 L31.8744838,22.3212615 L31.8744838,22.9078088 C31.8744838,23.2290667 31.7966879,23.7271842 31.6970644,24.014861 C31.4866238,24.6349894 30.7444846,25.3547412 30.1467437,25.5209669 C29.5708302,25.675999 25.3082875,25.675999 24.7323741,25.5209669 C24.1452671,25.3547412 23.3040642,24.5129786 23.1378384,23.9264312 C22.8501616,22.8966152 23.0829895,21.7783693 23.7137518,21.1140261 C24.3562675,20.4384892 24.5667081,20.3942743 27.5005643,20.327672 L27.5005643,20.327672 L30.1579372,20.2722635 L30.8995167,19.9179844 C31.9399667,19.4310606 32.6709121,18.7113087 33.1802233,17.6814928 C33.5568897,16.917526 33.589911,16.7736875 33.589911,15.9100973 C33.589911,15.0683347 33.5456961,14.8690876 33.2356319,14.2159381 C32.4716652,12.5883811 31.0433551,11.60278 29.2831534,11.5031565 L29.2831534,11.5031565 L28.3311333,11.4365542 L28.3311333,8.81276223 Z" id="Shape"></path>
                </g>
            </g>
        </g>
    </g>
</svg>