<?xml version="1.0" encoding="UTF-8"?>
<svg width="55px" height="58px" viewBox="0 0 55 58" version="1.1" xmlns="http://www.w3.org/2000/svg" xmlns:xlink="http://www.w3.org/1999/xlink">
    <!-- Generator: Sketch 63.1 (92452) - https://sketch.com -->
    <title>special_6</title>
    <desc>Created with Sketch.</desc>
    <g id="Foundation:-niceverynice.com" stroke="none" stroke-width="1" fill="none" fill-rule="evenodd">
        <g id="Artboard" transform="translate(-2443.000000, -2666.000000)" fill="#E32620">
            <g id="special_6" transform="translate(2443.000000, 2666.000000)">
                <path d="M33.9375247,32.9703932 L34.1133668,32.6187091 C34.37713,32.0911827 34.5529721,31.4757354 34.8167352,30.860288 C36.223472,31.6515775 37.893972,33.3220774 37.981893,35.2563405 L38.1577351,37.3664457 L39.2127876,35.5201037 C39.9161561,34.37713 40.3557613,32.9703932 40.4436823,31.4757354 C40.6195245,28.3984987 38.5094193,25.5850251 36.223472,24.5299726 C36.3993141,22.8594726 36.5751562,21.1010516 36.5751562,19.3426307 C36.5751562,9.055868 28.5743408,0.791289437 28.2226566,0.439605242 L27.6951303,0 L27.2555251,0.439605242 C26.9038409,0.791289437 18.9030255,8.96794696 18.9030255,19.3426307 C18.9030255,21.1010516 18.9909465,22.8594726 19.2547096,24.5299726 C16.9687624,25.6729462 14.8586572,28.4864197 15.0344994,31.5636564 C15.1224203,33.0583143 15.5620256,34.465051 16.2653939,35.6080246 L17.3204466,37.4543667 L17.4962886,35.3442615 C17.5842097,33.3220774 19.3426307,31.6515775 20.7493674,30.860288 C20.9252096,31.4757354 21.1889727,32.0911827 21.4527359,32.6187091 L21.6285779,32.9703932 L25.321262,32.9703932 L25.6729462,35.8717879 L30.0689986,35.8717879 L30.4206828,32.9703932 L33.9375247,32.9703932 Z M39.0369456,31.3878144 C39.0369456,32.0032617 38.8611035,32.6187091 38.6852614,33.1462353 C37.893972,31.4757354 36.3993141,30.1569197 35.0804984,29.4535513 C35.4321826,28.3105776 35.6959457,27.079683 35.8717879,25.8487883 C37.5422877,26.9038409 39.2127876,29.0139461 39.0369456,31.3878144 Z M16.6170782,33.2341563 C16.4412361,32.6187091 16.353315,32.0911827 16.2653939,31.4757354 C16.0895519,29.0139461 17.7600518,26.9038409 19.3426307,25.9367093 C19.5184727,27.167604 19.782236,28.3984987 20.1339201,29.5414723 C18.9030255,30.1569197 17.4083677,31.5636564 16.6170782,33.2341563 Z M24.9695778,31.6515775 L22.3319463,31.6515775 C20.9252096,28.3105776 20.2218412,23.9145252 20.2218412,19.3426307 C20.2218412,10.9901311 26.0246304,3.86852614 27.6951303,1.93426307 C29.4535513,3.78060509 35.1684194,10.90221 35.1684194,19.3426307 C35.1684194,24.0024462 34.37713,28.3105776 33.0583143,31.6515775 L30.4206828,31.6515775 L31.2119722,25.2333409 L24.2662095,25.2333409 L24.9695778,31.6515775 Z M26.6400778,34.5529721 L25.6729462,26.4642356 L29.6293934,26.4642356 L28.6622619,34.5529721 L26.6400778,34.5529721 Z" id="Shape"></path>
                <path d="M27.6951303,11.5176573 C25.6729462,11.5176573 23.9145252,13.1881573 23.9145252,15.2982625 C23.9145252,17.3204466 25.5850251,19.0788675 27.6951303,19.0788675 C29.8052355,19.0788675 31.4757354,17.4083677 31.4757354,15.2982625 C31.4757354,13.1881573 29.8052355,11.5176573 27.6951303,11.5176573 Z M27.6951303,17.6721308 C26.3763145,17.6721308 25.2333409,16.6170782 25.2333409,15.2103414 C25.2333409,13.8915256 26.2883936,12.748552 27.6951303,12.748552 C29.0139461,12.748552 30.1569197,13.8036047 30.1569197,15.2103414 C30.1569197,16.6170782 29.0139461,17.6721308 27.6951303,17.6721308 Z" id="Shape"></path>
                <rect id="Rectangle" x="45.103498" y="53.9835239" width="1.31881573" height="1.31881573"></rect>
                <path d="M51.4338134,23.1232357 C52.4009449,23.0353148 53.2801554,23.2111568 53.8956028,23.7386831 C54.423129,24.1782884 55.0385764,24.9695778 54.8627343,26.5521567 L54.8627343,26.5521567 L54.8627343,40.7953665 C54.8627343,42.0262612 54.3352081,43.2571559 53.4559976,44.1363664 L53.4559976,44.1363664 L47.7411294,49.8512346 C47.3894452,50.1149977 47.2136031,50.5546029 47.2136031,50.9942082 L47.2136031,50.9942082 L47.2136031,51.4338134 L48.9720241,51.4338134 L48.9720241,57.1486816 L47.6532083,57.1486816 L47.6532083,52.7526292 L34.289209,52.7526292 L34.289209,57.1486816 L32.9703932,57.1486816 L32.9703932,51.5217345 L34.7288141,51.5217345 L34.7288141,47.5652872 C34.7288141,46.1585505 35.3442615,44.8397347 36.3113931,43.8726033 L36.3113931,43.8726033 L43.8726033,36.4872352 C44.4001295,35.8717879 45.1914189,35.6080246 45.9827084,35.6080246 C46.7739978,35.6080246 47.5652872,35.9597088 48.0928136,36.4872352 C48.7082609,37.0147615 48.9720241,37.8060509 48.9720241,38.5973403 C48.9720241,39.3886298 48.6203399,40.1799192 48.0928136,40.7074455 L48.0928136,40.7074455 L44.4880506,44.2242875 L43.6088401,43.2571559 L47.2136031,39.740314 C47.5652872,39.4765508 47.7411294,39.0369456 47.7411294,38.5973403 C47.7411294,38.1577351 47.6532083,37.8060509 47.3015241,37.4543667 C47.037761,37.1026825 46.5981558,36.9268404 46.1585505,36.9268404 L46.1585505,36.9268404 L45.9976481,36.9349113 C45.6310243,36.9721747 45.3233006,37.1356529 45.0155769,37.3664457 L45.0155769,37.3664457 L37.4543667,44.7518138 C36.7509983,45.4551821 36.3113931,46.4223136 36.3113931,47.4773663 L36.3113931,47.4773663 L36.3113931,51.4338134 L46.1585505,51.4338134 L46.1585505,50.9942082 C46.1585505,50.2029187 46.5102347,49.4116293 47.037761,48.884103 L47.037761,48.884103 L52.7526292,43.1692348 C53.3680765,42.5537875 53.7197607,41.674577 53.7197607,40.7953665 L53.7197607,40.7953665 L53.7197607,26.5521567 C53.7197607,25.6729462 53.5439186,25.0574989 53.1043134,24.7058146 C52.6647081,24.3541304 52.1371818,24.3541304 51.6975765,24.4420515 C50.9942082,24.5299726 50.5546029,25.4091831 50.5546029,26.5521567 L50.5546029,26.5521567 L50.5546029,35.9597088 L49.2357872,35.9597088 L49.2357872,26.5521567 C49.2357872,24.7058146 50.1149977,23.3869989 51.4338134,23.1232357 Z M28.3984987,39.740314 L28.3984987,43.5209191 L27.079683,43.5209191 L27.079683,39.740314 L28.3984987,39.740314 Z M24.0903674,37.5422877 L24.0903674,41.2349718 L22.7715516,41.2349718 L22.7715516,37.5422877 L24.0903674,37.5422877 Z M32.618709,37.5422877 L32.618709,41.2349718 L31.2998933,41.2349718 L31.2998933,37.5422877 L32.618709,37.5422877 Z" id="Path-2"></path>
                <rect id="Rectangle" x="8.96794696" y="53.9835239" width="1.31881573" height="1.31881573"></rect>
                <path d="M20.3976833,47.4773663 C20.3976833,46.0706294 19.8701569,44.7518138 18.8151044,43.7846822 L11.2538942,36.3993141 C10.7263679,35.8717879 9.93507848,35.5201037 9.14378905,35.5201037 C9.14378905,35.5201037 9.14378905,35.5201037 9.055868,35.5201037 C8.26457857,35.5201037 7.47328913,35.8717879 6.94576284,36.3993141 C6.41823655,36.9268404 6.06655235,37.7181298 6.06655235,38.5094193 C6.06655235,39.3007087 6.41823655,40.0919981 6.94576284,40.6195245 L10.5505259,44.1363664 L11.4297364,43.1692348 L7.82497332,39.6523929 C7.47328913,39.3007087 7.29744703,38.9490245 7.29744703,38.5094193 C7.29744703,38.069814 7.47328913,37.6302088 7.73705227,37.3664457 C8.08873646,37.0147615 8.44042067,36.8389193 8.88002591,36.8389193 C8.88002591,36.8389193 8.88002591,36.8389193 8.88002591,36.8389193 C9.31963115,36.8389193 9.75923639,37.0147615 10.0229995,37.2785246 L17.5842097,44.6638927 C18.2875781,45.3672611 18.7271833,46.4223136 18.7271833,47.3894452 L18.7271833,51.3458924 L9.31963115,51.3458924 L9.31963115,50.9062871 C9.31963115,50.1149977 8.96794696,49.3237082 8.44042067,48.7961819 L2.72555251,43.0813138 C2.11010516,42.4658664 1.75842097,41.5866559 1.75842097,40.7074455 L1.75842097,26.5521567 C1.75842097,25.6729462 1.93426307,25.0574989 2.37386831,24.7058146 C2.81347356,24.3541304 3.34099985,24.3541304 3.78060509,24.4420515 C4.48397347,24.5299726 4.92357872,25.4091831 4.92357872,26.5521567 L4.92357872,35.9597088 L6.1544734,35.9597088 L6.1544734,26.5521567 C6.1544734,24.7058146 5.27526292,23.2990779 3.86852614,23.1232357 C2.90139461,22.9473937 2.02218412,23.2111568 1.40673678,23.7386831 C0.879210486,24.1782884 0.351684194,24.9695778 0.351684194,26.5521567 L0.351684194,40.7953665 C0.351684194,42.0262612 0.879210486,43.2571559 1.75842097,44.1363664 L7.47328913,49.8512346 C7.82497332,50.2029187 8.00081542,50.5546029 8.00081542,50.9942082 L8.00081542,51.4338134 L6.24239444,51.4338134 L6.24239444,57.1486816 L7.56121018,57.1486816 L7.56121018,52.7526292 L20.9252096,52.7526292 L20.9252096,57.1486816 L22.2440253,57.1486816 L22.2440253,51.4338134 L20.4856043,51.4338134 L20.4856043,47.4773663 L20.3976833,47.4773663 Z" id="Path"></path>
            </g>
        </g>
    </g>
</svg>